<?xml version="1.0" encoding="utf-8" standalone="no"?>
<!DOCTYPE svg PUBLIC "-//W3C//DTD SVG 1.1//EN"
  "http://www.w3.org/Graphics/SVG/1.1/DTD/svg11.dtd">
<!-- Created with matplotlib (https://matplotlib.org/) -->
<svg height="864pt" version="1.1" viewBox="0 0 1152 864" width="1152pt" xmlns="http://www.w3.org/2000/svg" xmlns:xlink="http://www.w3.org/1999/xlink">
 <metadata>
  <rdf:RDF xmlns:cc="http://creativecommons.org/ns#" xmlns:dc="http://purl.org/dc/elements/1.1/" xmlns:rdf="http://www.w3.org/1999/02/22-rdf-syntax-ns#">
   <cc:Work>
    <dc:type rdf:resource="http://purl.org/dc/dcmitype/StillImage"/>
    <dc:date>2021-05-29T18:26:42.926730</dc:date>
    <dc:format>image/svg+xml</dc:format>
    <dc:creator>
     <cc:Agent>
      <dc:title>Matplotlib v3.3.4, https://matplotlib.org/</dc:title>
     </cc:Agent>
    </dc:creator>
   </cc:Work>
  </rdf:RDF>
 </metadata>
 <defs>
  <style type="text/css">*{stroke-linecap:butt;stroke-linejoin:round;}</style>
 </defs>
 <g id="figure_1">
  <g id="patch_1">
   <path d="M 0 864 
L 1152 864 
L 1152 0 
L 0 0 
z
" style="fill:#ffffff;"/>
  </g>
  <g id="axes_1">
   <g id="patch_2">
    <path d="M 144 768.96 
L 1036.8 768.96 
L 1036.8 103.68 
L 144 103.68 
z
" style="fill:#eaeaf2;"/>
   </g>
   <g id="matplotlib.axis_1">
    <g id="xtick_1">
     <g id="line2d_1">
      <path clip-path="url(#p4ff84207ee)" d="M 184.581818 768.96 
L 184.581818 103.68 
" style="fill:none;stroke:#ffffff;stroke-linecap:round;"/>
     </g>
     <g id="text_1">
      <!-- 0 -->
      <g style="fill:#262626;" transform="translate(181.082443 786.818281)scale(0.11 -0.11)">
       <defs>
        <path d="M 31.78125 66.40625 
Q 24.171875 66.40625 20.328125 58.90625 
Q 16.5 51.421875 16.5 36.375 
Q 16.5 21.390625 20.328125 13.890625 
Q 24.171875 6.390625 31.78125 6.390625 
Q 39.453125 6.390625 43.28125 13.890625 
Q 47.125 21.390625 47.125 36.375 
Q 47.125 51.421875 43.28125 58.90625 
Q 39.453125 66.40625 31.78125 66.40625 
z
M 31.78125 74.21875 
Q 44.046875 74.21875 50.515625 64.515625 
Q 56.984375 54.828125 56.984375 36.375 
Q 56.984375 17.96875 50.515625 8.265625 
Q 44.046875 -1.421875 31.78125 -1.421875 
Q 19.53125 -1.421875 13.0625 8.265625 
Q 6.59375 17.96875 6.59375 36.375 
Q 6.59375 54.828125 13.0625 64.515625 
Q 19.53125 74.21875 31.78125 74.21875 
z
" id="DejaVuSans-48"/>
       </defs>
       <use xlink:href="#DejaVuSans-48"/>
      </g>
     </g>
    </g>
    <g id="xtick_2">
     <g id="line2d_2">
      <path clip-path="url(#p4ff84207ee)" d="M 286.290636 768.96 
L 286.290636 103.68 
" style="fill:none;stroke:#ffffff;stroke-linecap:round;"/>
     </g>
     <g id="text_2">
      <!-- 50 -->
      <g style="fill:#262626;" transform="translate(279.291886 786.818281)scale(0.11 -0.11)">
       <defs>
        <path d="M 10.796875 72.90625 
L 49.515625 72.90625 
L 49.515625 64.59375 
L 19.828125 64.59375 
L 19.828125 46.734375 
Q 21.96875 47.46875 24.109375 47.828125 
Q 26.265625 48.1875 28.421875 48.1875 
Q 40.625 48.1875 47.75 41.5 
Q 54.890625 34.8125 54.890625 23.390625 
Q 54.890625 11.625 47.5625 5.09375 
Q 40.234375 -1.421875 26.90625 -1.421875 
Q 22.3125 -1.421875 17.546875 -0.640625 
Q 12.796875 0.140625 7.71875 1.703125 
L 7.71875 11.625 
Q 12.109375 9.234375 16.796875 8.0625 
Q 21.484375 6.890625 26.703125 6.890625 
Q 35.15625 6.890625 40.078125 11.328125 
Q 45.015625 15.765625 45.015625 23.390625 
Q 45.015625 31 40.078125 35.4375 
Q 35.15625 39.890625 26.703125 39.890625 
Q 22.75 39.890625 18.8125 39.015625 
Q 14.890625 38.140625 10.796875 36.28125 
z
" id="DejaVuSans-53"/>
       </defs>
       <use xlink:href="#DejaVuSans-53"/>
       <use x="63.623047" xlink:href="#DejaVuSans-48"/>
      </g>
     </g>
    </g>
    <g id="xtick_3">
     <g id="line2d_3">
      <path clip-path="url(#p4ff84207ee)" d="M 387.999453 768.96 
L 387.999453 103.68 
" style="fill:none;stroke:#ffffff;stroke-linecap:round;"/>
     </g>
     <g id="text_3">
      <!-- 100 -->
      <g style="fill:#262626;" transform="translate(377.501328 786.818281)scale(0.11 -0.11)">
       <defs>
        <path d="M 12.40625 8.296875 
L 28.515625 8.296875 
L 28.515625 63.921875 
L 10.984375 60.40625 
L 10.984375 69.390625 
L 28.421875 72.90625 
L 38.28125 72.90625 
L 38.28125 8.296875 
L 54.390625 8.296875 
L 54.390625 0 
L 12.40625 0 
z
" id="DejaVuSans-49"/>
       </defs>
       <use xlink:href="#DejaVuSans-49"/>
       <use x="63.623047" xlink:href="#DejaVuSans-48"/>
       <use x="127.246094" xlink:href="#DejaVuSans-48"/>
      </g>
     </g>
    </g>
    <g id="xtick_4">
     <g id="line2d_4">
      <path clip-path="url(#p4ff84207ee)" d="M 489.708271 768.96 
L 489.708271 103.68 
" style="fill:none;stroke:#ffffff;stroke-linecap:round;"/>
     </g>
     <g id="text_4">
      <!-- 150 -->
      <g style="fill:#262626;" transform="translate(479.210146 786.818281)scale(0.11 -0.11)">
       <use xlink:href="#DejaVuSans-49"/>
       <use x="63.623047" xlink:href="#DejaVuSans-53"/>
       <use x="127.246094" xlink:href="#DejaVuSans-48"/>
      </g>
     </g>
    </g>
    <g id="xtick_5">
     <g id="line2d_5">
      <path clip-path="url(#p4ff84207ee)" d="M 591.417088 768.96 
L 591.417088 103.68 
" style="fill:none;stroke:#ffffff;stroke-linecap:round;"/>
     </g>
     <g id="text_5">
      <!-- 200 -->
      <g style="fill:#262626;" transform="translate(580.918963 786.818281)scale(0.11 -0.11)">
       <defs>
        <path d="M 19.1875 8.296875 
L 53.609375 8.296875 
L 53.609375 0 
L 7.328125 0 
L 7.328125 8.296875 
Q 12.9375 14.109375 22.625 23.890625 
Q 32.328125 33.6875 34.8125 36.53125 
Q 39.546875 41.84375 41.421875 45.53125 
Q 43.3125 49.21875 43.3125 52.78125 
Q 43.3125 58.59375 39.234375 62.25 
Q 35.15625 65.921875 28.609375 65.921875 
Q 23.96875 65.921875 18.8125 64.3125 
Q 13.671875 62.703125 7.8125 59.421875 
L 7.8125 69.390625 
Q 13.765625 71.78125 18.9375 73 
Q 24.125 74.21875 28.421875 74.21875 
Q 39.75 74.21875 46.484375 68.546875 
Q 53.21875 62.890625 53.21875 53.421875 
Q 53.21875 48.921875 51.53125 44.890625 
Q 49.859375 40.875 45.40625 35.40625 
Q 44.1875 33.984375 37.640625 27.21875 
Q 31.109375 20.453125 19.1875 8.296875 
z
" id="DejaVuSans-50"/>
       </defs>
       <use xlink:href="#DejaVuSans-50"/>
       <use x="63.623047" xlink:href="#DejaVuSans-48"/>
       <use x="127.246094" xlink:href="#DejaVuSans-48"/>
      </g>
     </g>
    </g>
    <g id="xtick_6">
     <g id="line2d_6">
      <path clip-path="url(#p4ff84207ee)" d="M 693.125906 768.96 
L 693.125906 103.68 
" style="fill:none;stroke:#ffffff;stroke-linecap:round;"/>
     </g>
     <g id="text_6">
      <!-- 250 -->
      <g style="fill:#262626;" transform="translate(682.627781 786.818281)scale(0.11 -0.11)">
       <use xlink:href="#DejaVuSans-50"/>
       <use x="63.623047" xlink:href="#DejaVuSans-53"/>
       <use x="127.246094" xlink:href="#DejaVuSans-48"/>
      </g>
     </g>
    </g>
    <g id="xtick_7">
     <g id="line2d_7">
      <path clip-path="url(#p4ff84207ee)" d="M 794.834723 768.96 
L 794.834723 103.68 
" style="fill:none;stroke:#ffffff;stroke-linecap:round;"/>
     </g>
     <g id="text_7">
      <!-- 300 -->
      <g style="fill:#262626;" transform="translate(784.336598 786.818281)scale(0.11 -0.11)">
       <defs>
        <path d="M 40.578125 39.3125 
Q 47.65625 37.796875 51.625 33 
Q 55.609375 28.21875 55.609375 21.1875 
Q 55.609375 10.40625 48.1875 4.484375 
Q 40.765625 -1.421875 27.09375 -1.421875 
Q 22.515625 -1.421875 17.65625 -0.515625 
Q 12.796875 0.390625 7.625 2.203125 
L 7.625 11.71875 
Q 11.71875 9.328125 16.59375 8.109375 
Q 21.484375 6.890625 26.8125 6.890625 
Q 36.078125 6.890625 40.9375 10.546875 
Q 45.796875 14.203125 45.796875 21.1875 
Q 45.796875 27.640625 41.28125 31.265625 
Q 36.765625 34.90625 28.71875 34.90625 
L 20.21875 34.90625 
L 20.21875 43.015625 
L 29.109375 43.015625 
Q 36.375 43.015625 40.234375 45.921875 
Q 44.09375 48.828125 44.09375 54.296875 
Q 44.09375 59.90625 40.109375 62.90625 
Q 36.140625 65.921875 28.71875 65.921875 
Q 24.65625 65.921875 20.015625 65.03125 
Q 15.375 64.15625 9.8125 62.3125 
L 9.8125 71.09375 
Q 15.4375 72.65625 20.34375 73.4375 
Q 25.25 74.21875 29.59375 74.21875 
Q 40.828125 74.21875 47.359375 69.109375 
Q 53.90625 64.015625 53.90625 55.328125 
Q 53.90625 49.265625 50.4375 45.09375 
Q 46.96875 40.921875 40.578125 39.3125 
z
" id="DejaVuSans-51"/>
       </defs>
       <use xlink:href="#DejaVuSans-51"/>
       <use x="63.623047" xlink:href="#DejaVuSans-48"/>
       <use x="127.246094" xlink:href="#DejaVuSans-48"/>
      </g>
     </g>
    </g>
    <g id="xtick_8">
     <g id="line2d_8">
      <path clip-path="url(#p4ff84207ee)" d="M 896.543541 768.96 
L 896.543541 103.68 
" style="fill:none;stroke:#ffffff;stroke-linecap:round;"/>
     </g>
     <g id="text_8">
      <!-- 350 -->
      <g style="fill:#262626;" transform="translate(886.045416 786.818281)scale(0.11 -0.11)">
       <use xlink:href="#DejaVuSans-51"/>
       <use x="63.623047" xlink:href="#DejaVuSans-53"/>
       <use x="127.246094" xlink:href="#DejaVuSans-48"/>
      </g>
     </g>
    </g>
    <g id="xtick_9">
     <g id="line2d_9">
      <path clip-path="url(#p4ff84207ee)" d="M 998.252358 768.96 
L 998.252358 103.68 
" style="fill:none;stroke:#ffffff;stroke-linecap:round;"/>
     </g>
     <g id="text_9">
      <!-- 400 -->
      <g style="fill:#262626;" transform="translate(987.754233 786.818281)scale(0.11 -0.11)">
       <defs>
        <path d="M 37.796875 64.3125 
L 12.890625 25.390625 
L 37.796875 25.390625 
z
M 35.203125 72.90625 
L 47.609375 72.90625 
L 47.609375 25.390625 
L 58.015625 25.390625 
L 58.015625 17.1875 
L 47.609375 17.1875 
L 47.609375 0 
L 37.796875 0 
L 37.796875 17.1875 
L 4.890625 17.1875 
L 4.890625 26.703125 
z
" id="DejaVuSans-52"/>
       </defs>
       <use xlink:href="#DejaVuSans-52"/>
       <use x="63.623047" xlink:href="#DejaVuSans-48"/>
       <use x="127.246094" xlink:href="#DejaVuSans-48"/>
      </g>
     </g>
    </g>
    <g id="text_10">
     <!-- n epochs -->
     <g style="fill:#262626;" transform="translate(563.29125 802.224063)scale(0.12 -0.12)">
      <defs>
       <path d="M 54.890625 33.015625 
L 54.890625 0 
L 45.90625 0 
L 45.90625 32.71875 
Q 45.90625 40.484375 42.875 44.328125 
Q 39.84375 48.1875 33.796875 48.1875 
Q 26.515625 48.1875 22.3125 43.546875 
Q 18.109375 38.921875 18.109375 30.90625 
L 18.109375 0 
L 9.078125 0 
L 9.078125 54.6875 
L 18.109375 54.6875 
L 18.109375 46.1875 
Q 21.34375 51.125 25.703125 53.5625 
Q 30.078125 56 35.796875 56 
Q 45.21875 56 50.046875 50.171875 
Q 54.890625 44.34375 54.890625 33.015625 
z
" id="DejaVuSans-110"/>
       <path id="DejaVuSans-32"/>
       <path d="M 56.203125 29.59375 
L 56.203125 25.203125 
L 14.890625 25.203125 
Q 15.484375 15.921875 20.484375 11.0625 
Q 25.484375 6.203125 34.421875 6.203125 
Q 39.59375 6.203125 44.453125 7.46875 
Q 49.3125 8.734375 54.109375 11.28125 
L 54.109375 2.78125 
Q 49.265625 0.734375 44.1875 -0.34375 
Q 39.109375 -1.421875 33.890625 -1.421875 
Q 20.796875 -1.421875 13.15625 6.1875 
Q 5.515625 13.8125 5.515625 26.8125 
Q 5.515625 40.234375 12.765625 48.109375 
Q 20.015625 56 32.328125 56 
Q 43.359375 56 49.78125 48.890625 
Q 56.203125 41.796875 56.203125 29.59375 
z
M 47.21875 32.234375 
Q 47.125 39.59375 43.09375 43.984375 
Q 39.0625 48.390625 32.421875 48.390625 
Q 24.90625 48.390625 20.390625 44.140625 
Q 15.875 39.890625 15.1875 32.171875 
z
" id="DejaVuSans-101"/>
       <path d="M 18.109375 8.203125 
L 18.109375 -20.796875 
L 9.078125 -20.796875 
L 9.078125 54.6875 
L 18.109375 54.6875 
L 18.109375 46.390625 
Q 20.953125 51.265625 25.265625 53.625 
Q 29.59375 56 35.59375 56 
Q 45.5625 56 51.78125 48.09375 
Q 58.015625 40.1875 58.015625 27.296875 
Q 58.015625 14.40625 51.78125 6.484375 
Q 45.5625 -1.421875 35.59375 -1.421875 
Q 29.59375 -1.421875 25.265625 0.953125 
Q 20.953125 3.328125 18.109375 8.203125 
z
M 48.6875 27.296875 
Q 48.6875 37.203125 44.609375 42.84375 
Q 40.53125 48.484375 33.40625 48.484375 
Q 26.265625 48.484375 22.1875 42.84375 
Q 18.109375 37.203125 18.109375 27.296875 
Q 18.109375 17.390625 22.1875 11.75 
Q 26.265625 6.109375 33.40625 6.109375 
Q 40.53125 6.109375 44.609375 11.75 
Q 48.6875 17.390625 48.6875 27.296875 
z
" id="DejaVuSans-112"/>
       <path d="M 30.609375 48.390625 
Q 23.390625 48.390625 19.1875 42.75 
Q 14.984375 37.109375 14.984375 27.296875 
Q 14.984375 17.484375 19.15625 11.84375 
Q 23.34375 6.203125 30.609375 6.203125 
Q 37.796875 6.203125 41.984375 11.859375 
Q 46.1875 17.53125 46.1875 27.296875 
Q 46.1875 37.015625 41.984375 42.703125 
Q 37.796875 48.390625 30.609375 48.390625 
z
M 30.609375 56 
Q 42.328125 56 49.015625 48.375 
Q 55.71875 40.765625 55.71875 27.296875 
Q 55.71875 13.875 49.015625 6.21875 
Q 42.328125 -1.421875 30.609375 -1.421875 
Q 18.84375 -1.421875 12.171875 6.21875 
Q 5.515625 13.875 5.515625 27.296875 
Q 5.515625 40.765625 12.171875 48.375 
Q 18.84375 56 30.609375 56 
z
" id="DejaVuSans-111"/>
       <path d="M 48.78125 52.59375 
L 48.78125 44.1875 
Q 44.96875 46.296875 41.140625 47.34375 
Q 37.3125 48.390625 33.40625 48.390625 
Q 24.65625 48.390625 19.8125 42.84375 
Q 14.984375 37.3125 14.984375 27.296875 
Q 14.984375 17.28125 19.8125 11.734375 
Q 24.65625 6.203125 33.40625 6.203125 
Q 37.3125 6.203125 41.140625 7.25 
Q 44.96875 8.296875 48.78125 10.40625 
L 48.78125 2.09375 
Q 45.015625 0.34375 40.984375 -0.53125 
Q 36.96875 -1.421875 32.421875 -1.421875 
Q 20.0625 -1.421875 12.78125 6.34375 
Q 5.515625 14.109375 5.515625 27.296875 
Q 5.515625 40.671875 12.859375 48.328125 
Q 20.21875 56 33.015625 56 
Q 37.15625 56 41.109375 55.140625 
Q 45.0625 54.296875 48.78125 52.59375 
z
" id="DejaVuSans-99"/>
       <path d="M 54.890625 33.015625 
L 54.890625 0 
L 45.90625 0 
L 45.90625 32.71875 
Q 45.90625 40.484375 42.875 44.328125 
Q 39.84375 48.1875 33.796875 48.1875 
Q 26.515625 48.1875 22.3125 43.546875 
Q 18.109375 38.921875 18.109375 30.90625 
L 18.109375 0 
L 9.078125 0 
L 9.078125 75.984375 
L 18.109375 75.984375 
L 18.109375 46.1875 
Q 21.34375 51.125 25.703125 53.5625 
Q 30.078125 56 35.796875 56 
Q 45.21875 56 50.046875 50.171875 
Q 54.890625 44.34375 54.890625 33.015625 
z
" id="DejaVuSans-104"/>
       <path d="M 44.28125 53.078125 
L 44.28125 44.578125 
Q 40.484375 46.53125 36.375 47.5 
Q 32.28125 48.484375 27.875 48.484375 
Q 21.1875 48.484375 17.84375 46.4375 
Q 14.5 44.390625 14.5 40.28125 
Q 14.5 37.15625 16.890625 35.375 
Q 19.28125 33.59375 26.515625 31.984375 
L 29.59375 31.296875 
Q 39.15625 29.25 43.1875 25.515625 
Q 47.21875 21.78125 47.21875 15.09375 
Q 47.21875 7.46875 41.1875 3.015625 
Q 35.15625 -1.421875 24.609375 -1.421875 
Q 20.21875 -1.421875 15.453125 -0.5625 
Q 10.6875 0.296875 5.421875 2 
L 5.421875 11.28125 
Q 10.40625 8.6875 15.234375 7.390625 
Q 20.0625 6.109375 24.8125 6.109375 
Q 31.15625 6.109375 34.5625 8.28125 
Q 37.984375 10.453125 37.984375 14.40625 
Q 37.984375 18.0625 35.515625 20.015625 
Q 33.0625 21.96875 24.703125 23.78125 
L 21.578125 24.515625 
Q 13.234375 26.265625 9.515625 29.90625 
Q 5.8125 33.546875 5.8125 39.890625 
Q 5.8125 47.609375 11.28125 51.796875 
Q 16.75 56 26.8125 56 
Q 31.78125 56 36.171875 55.265625 
Q 40.578125 54.546875 44.28125 53.078125 
z
" id="DejaVuSans-115"/>
      </defs>
      <use xlink:href="#DejaVuSans-110"/>
      <use x="63.378906" xlink:href="#DejaVuSans-32"/>
      <use x="95.166016" xlink:href="#DejaVuSans-101"/>
      <use x="156.689453" xlink:href="#DejaVuSans-112"/>
      <use x="220.166016" xlink:href="#DejaVuSans-111"/>
      <use x="281.347656" xlink:href="#DejaVuSans-99"/>
      <use x="336.328125" xlink:href="#DejaVuSans-104"/>
      <use x="399.707031" xlink:href="#DejaVuSans-115"/>
     </g>
    </g>
   </g>
   <g id="matplotlib.axis_2">
    <g id="ytick_1">
     <g id="line2d_10">
      <path clip-path="url(#p4ff84207ee)" d="M 144 725.092532 
L 1036.8 725.092532 
" style="fill:none;stroke:#ffffff;stroke-linecap:round;"/>
     </g>
     <g id="text_11">
      <!-- 0.0 -->
      <g style="fill:#262626;" transform="translate(117.006563 729.271673)scale(0.11 -0.11)">
       <defs>
        <path d="M 10.6875 12.40625 
L 21 12.40625 
L 21 0 
L 10.6875 0 
z
" id="DejaVuSans-46"/>
       </defs>
       <use xlink:href="#DejaVuSans-48"/>
       <use x="63.623047" xlink:href="#DejaVuSans-46"/>
       <use x="95.410156" xlink:href="#DejaVuSans-48"/>
      </g>
     </g>
    </g>
    <g id="ytick_2">
     <g id="line2d_11">
      <path clip-path="url(#p4ff84207ee)" d="M 144 595.307124 
L 1036.8 595.307124 
" style="fill:none;stroke:#ffffff;stroke-linecap:round;"/>
     </g>
     <g id="text_12">
      <!-- 0.2 -->
      <g style="fill:#262626;" transform="translate(117.006563 599.486265)scale(0.11 -0.11)">
       <use xlink:href="#DejaVuSans-48"/>
       <use x="63.623047" xlink:href="#DejaVuSans-46"/>
       <use x="95.410156" xlink:href="#DejaVuSans-50"/>
      </g>
     </g>
    </g>
    <g id="ytick_3">
     <g id="line2d_12">
      <path clip-path="url(#p4ff84207ee)" d="M 144 465.521717 
L 1036.8 465.521717 
" style="fill:none;stroke:#ffffff;stroke-linecap:round;"/>
     </g>
     <g id="text_13">
      <!-- 0.4 -->
      <g style="fill:#262626;" transform="translate(117.006563 469.700857)scale(0.11 -0.11)">
       <use xlink:href="#DejaVuSans-48"/>
       <use x="63.623047" xlink:href="#DejaVuSans-46"/>
       <use x="95.410156" xlink:href="#DejaVuSans-52"/>
      </g>
     </g>
    </g>
    <g id="ytick_4">
     <g id="line2d_13">
      <path clip-path="url(#p4ff84207ee)" d="M 144 335.736309 
L 1036.8 335.736309 
" style="fill:none;stroke:#ffffff;stroke-linecap:round;"/>
     </g>
     <g id="text_14">
      <!-- 0.6 -->
      <g style="fill:#262626;" transform="translate(117.006563 339.91545)scale(0.11 -0.11)">
       <defs>
        <path d="M 33.015625 40.375 
Q 26.375 40.375 22.484375 35.828125 
Q 18.609375 31.296875 18.609375 23.390625 
Q 18.609375 15.53125 22.484375 10.953125 
Q 26.375 6.390625 33.015625 6.390625 
Q 39.65625 6.390625 43.53125 10.953125 
Q 47.40625 15.53125 47.40625 23.390625 
Q 47.40625 31.296875 43.53125 35.828125 
Q 39.65625 40.375 33.015625 40.375 
z
M 52.59375 71.296875 
L 52.59375 62.3125 
Q 48.875 64.0625 45.09375 64.984375 
Q 41.3125 65.921875 37.59375 65.921875 
Q 27.828125 65.921875 22.671875 59.328125 
Q 17.53125 52.734375 16.796875 39.40625 
Q 19.671875 43.65625 24.015625 45.921875 
Q 28.375 48.1875 33.59375 48.1875 
Q 44.578125 48.1875 50.953125 41.515625 
Q 57.328125 34.859375 57.328125 23.390625 
Q 57.328125 12.15625 50.6875 5.359375 
Q 44.046875 -1.421875 33.015625 -1.421875 
Q 20.359375 -1.421875 13.671875 8.265625 
Q 6.984375 17.96875 6.984375 36.375 
Q 6.984375 53.65625 15.1875 63.9375 
Q 23.390625 74.21875 37.203125 74.21875 
Q 40.921875 74.21875 44.703125 73.484375 
Q 48.484375 72.75 52.59375 71.296875 
z
" id="DejaVuSans-54"/>
       </defs>
       <use xlink:href="#DejaVuSans-48"/>
       <use x="63.623047" xlink:href="#DejaVuSans-46"/>
       <use x="95.410156" xlink:href="#DejaVuSans-54"/>
      </g>
     </g>
    </g>
    <g id="ytick_5">
     <g id="line2d_14">
      <path clip-path="url(#p4ff84207ee)" d="M 144 205.950901 
L 1036.8 205.950901 
" style="fill:none;stroke:#ffffff;stroke-linecap:round;"/>
     </g>
     <g id="text_15">
      <!-- 0.8 -->
      <g style="fill:#262626;" transform="translate(117.006563 210.130042)scale(0.11 -0.11)">
       <defs>
        <path d="M 31.78125 34.625 
Q 24.75 34.625 20.71875 30.859375 
Q 16.703125 27.09375 16.703125 20.515625 
Q 16.703125 13.921875 20.71875 10.15625 
Q 24.75 6.390625 31.78125 6.390625 
Q 38.8125 6.390625 42.859375 10.171875 
Q 46.921875 13.96875 46.921875 20.515625 
Q 46.921875 27.09375 42.890625 30.859375 
Q 38.875 34.625 31.78125 34.625 
z
M 21.921875 38.8125 
Q 15.578125 40.375 12.03125 44.71875 
Q 8.5 49.078125 8.5 55.328125 
Q 8.5 64.0625 14.71875 69.140625 
Q 20.953125 74.21875 31.78125 74.21875 
Q 42.671875 74.21875 48.875 69.140625 
Q 55.078125 64.0625 55.078125 55.328125 
Q 55.078125 49.078125 51.53125 44.71875 
Q 48 40.375 41.703125 38.8125 
Q 48.828125 37.15625 52.796875 32.3125 
Q 56.78125 27.484375 56.78125 20.515625 
Q 56.78125 9.90625 50.3125 4.234375 
Q 43.84375 -1.421875 31.78125 -1.421875 
Q 19.734375 -1.421875 13.25 4.234375 
Q 6.78125 9.90625 6.78125 20.515625 
Q 6.78125 27.484375 10.78125 32.3125 
Q 14.796875 37.15625 21.921875 38.8125 
z
M 18.3125 54.390625 
Q 18.3125 48.734375 21.84375 45.5625 
Q 25.390625 42.390625 31.78125 42.390625 
Q 38.140625 42.390625 41.71875 45.5625 
Q 45.3125 48.734375 45.3125 54.390625 
Q 45.3125 60.0625 41.71875 63.234375 
Q 38.140625 66.40625 31.78125 66.40625 
Q 25.390625 66.40625 21.84375 63.234375 
Q 18.3125 60.0625 18.3125 54.390625 
z
" id="DejaVuSans-56"/>
       </defs>
       <use xlink:href="#DejaVuSans-48"/>
       <use x="63.623047" xlink:href="#DejaVuSans-46"/>
       <use x="95.410156" xlink:href="#DejaVuSans-56"/>
      </g>
     </g>
    </g>
    <g id="text_16">
     <!-- mean success rate -->
     <g style="fill:#262626;" transform="translate(110.510937 492.80625)rotate(-90)scale(0.12 -0.12)">
      <defs>
       <path d="M 52 44.1875 
Q 55.375 50.25 60.0625 53.125 
Q 64.75 56 71.09375 56 
Q 79.640625 56 84.28125 50.015625 
Q 88.921875 44.046875 88.921875 33.015625 
L 88.921875 0 
L 79.890625 0 
L 79.890625 32.71875 
Q 79.890625 40.578125 77.09375 44.375 
Q 74.3125 48.1875 68.609375 48.1875 
Q 61.625 48.1875 57.5625 43.546875 
Q 53.515625 38.921875 53.515625 30.90625 
L 53.515625 0 
L 44.484375 0 
L 44.484375 32.71875 
Q 44.484375 40.625 41.703125 44.40625 
Q 38.921875 48.1875 33.109375 48.1875 
Q 26.21875 48.1875 22.15625 43.53125 
Q 18.109375 38.875 18.109375 30.90625 
L 18.109375 0 
L 9.078125 0 
L 9.078125 54.6875 
L 18.109375 54.6875 
L 18.109375 46.1875 
Q 21.1875 51.21875 25.484375 53.609375 
Q 29.78125 56 35.6875 56 
Q 41.65625 56 45.828125 52.96875 
Q 50 49.953125 52 44.1875 
z
" id="DejaVuSans-109"/>
       <path d="M 34.28125 27.484375 
Q 23.390625 27.484375 19.1875 25 
Q 14.984375 22.515625 14.984375 16.5 
Q 14.984375 11.71875 18.140625 8.90625 
Q 21.296875 6.109375 26.703125 6.109375 
Q 34.1875 6.109375 38.703125 11.40625 
Q 43.21875 16.703125 43.21875 25.484375 
L 43.21875 27.484375 
z
M 52.203125 31.203125 
L 52.203125 0 
L 43.21875 0 
L 43.21875 8.296875 
Q 40.140625 3.328125 35.546875 0.953125 
Q 30.953125 -1.421875 24.3125 -1.421875 
Q 15.921875 -1.421875 10.953125 3.296875 
Q 6 8.015625 6 15.921875 
Q 6 25.140625 12.171875 29.828125 
Q 18.359375 34.515625 30.609375 34.515625 
L 43.21875 34.515625 
L 43.21875 35.40625 
Q 43.21875 41.609375 39.140625 45 
Q 35.0625 48.390625 27.6875 48.390625 
Q 23 48.390625 18.546875 47.265625 
Q 14.109375 46.140625 10.015625 43.890625 
L 10.015625 52.203125 
Q 14.9375 54.109375 19.578125 55.046875 
Q 24.21875 56 28.609375 56 
Q 40.484375 56 46.34375 49.84375 
Q 52.203125 43.703125 52.203125 31.203125 
z
" id="DejaVuSans-97"/>
       <path d="M 8.5 21.578125 
L 8.5 54.6875 
L 17.484375 54.6875 
L 17.484375 21.921875 
Q 17.484375 14.15625 20.5 10.265625 
Q 23.53125 6.390625 29.59375 6.390625 
Q 36.859375 6.390625 41.078125 11.03125 
Q 45.3125 15.671875 45.3125 23.6875 
L 45.3125 54.6875 
L 54.296875 54.6875 
L 54.296875 0 
L 45.3125 0 
L 45.3125 8.40625 
Q 42.046875 3.421875 37.71875 1 
Q 33.40625 -1.421875 27.6875 -1.421875 
Q 18.265625 -1.421875 13.375 4.4375 
Q 8.5 10.296875 8.5 21.578125 
z
M 31.109375 56 
z
" id="DejaVuSans-117"/>
       <path d="M 41.109375 46.296875 
Q 39.59375 47.171875 37.8125 47.578125 
Q 36.03125 48 33.890625 48 
Q 26.265625 48 22.1875 43.046875 
Q 18.109375 38.09375 18.109375 28.8125 
L 18.109375 0 
L 9.078125 0 
L 9.078125 54.6875 
L 18.109375 54.6875 
L 18.109375 46.1875 
Q 20.953125 51.171875 25.484375 53.578125 
Q 30.03125 56 36.53125 56 
Q 37.453125 56 38.578125 55.875 
Q 39.703125 55.765625 41.0625 55.515625 
z
" id="DejaVuSans-114"/>
       <path d="M 18.3125 70.21875 
L 18.3125 54.6875 
L 36.8125 54.6875 
L 36.8125 47.703125 
L 18.3125 47.703125 
L 18.3125 18.015625 
Q 18.3125 11.328125 20.140625 9.421875 
Q 21.96875 7.515625 27.59375 7.515625 
L 36.8125 7.515625 
L 36.8125 0 
L 27.59375 0 
Q 17.1875 0 13.234375 3.875 
Q 9.28125 7.765625 9.28125 18.015625 
L 9.28125 47.703125 
L 2.6875 47.703125 
L 2.6875 54.6875 
L 9.28125 54.6875 
L 9.28125 70.21875 
z
" id="DejaVuSans-116"/>
      </defs>
      <use xlink:href="#DejaVuSans-109"/>
      <use x="97.412109" xlink:href="#DejaVuSans-101"/>
      <use x="158.935547" xlink:href="#DejaVuSans-97"/>
      <use x="220.214844" xlink:href="#DejaVuSans-110"/>
      <use x="283.59375" xlink:href="#DejaVuSans-32"/>
      <use x="315.380859" xlink:href="#DejaVuSans-115"/>
      <use x="367.480469" xlink:href="#DejaVuSans-117"/>
      <use x="430.859375" xlink:href="#DejaVuSans-99"/>
      <use x="485.839844" xlink:href="#DejaVuSans-99"/>
      <use x="540.820312" xlink:href="#DejaVuSans-101"/>
      <use x="602.34375" xlink:href="#DejaVuSans-115"/>
      <use x="654.443359" xlink:href="#DejaVuSans-115"/>
      <use x="706.542969" xlink:href="#DejaVuSans-32"/>
      <use x="738.330078" xlink:href="#DejaVuSans-114"/>
      <use x="779.443359" xlink:href="#DejaVuSans-97"/>
      <use x="840.722656" xlink:href="#DejaVuSans-116"/>
      <use x="879.931641" xlink:href="#DejaVuSans-101"/>
     </g>
    </g>
   </g>
   <g id="PolyCollection_1">
    <defs>
     <path d="M 184.581818 -138.907468 
L 184.581818 -138.907468 
L 186.615995 -168.758112 
L 188.650171 -183.034506 
L 190.684347 -203.800172 
L 192.718524 -183.034506 
L 194.7527 -217.427639 
L 196.786876 -329.692017 
L 198.821053 -330.340944 
L 200.855229 -391.340086 
L 202.889405 -379.010472 
L 204.923582 -537.34867 
L 206.957758 -435.467124 
L 208.991934 -465.966695 
L 211.026111 -520.476567 
L 213.060287 -528.263691 
L 215.094463 -558.114335 
L 217.12864 -528.263691 
L 219.162816 -567.199313 
L 221.196992 -530.859399 
L 223.231169 -531.508326 
L 225.265345 -578.88 
L 227.299522 -603.539227 
L 229.333698 -484.136652 
L 231.367874 -474.402747 
L 233.402051 -613.92206 
L 235.436227 -604.837082 
L 237.470403 -575.635365 
L 239.50458 -574.986438 
L 241.538756 -492.572704 
L 243.572932 -580.826781 
L 245.607109 -531.508326 
L 247.641285 -499.061974 
L 249.675461 -472.455966 
L 251.709638 -587.316052 
L 253.743814 -580.826781 
L 255.77799 -539.295451 
L 257.812167 -604.188155 
L 259.846343 -598.996738 
L 261.880519 -541.891159 
L 263.914696 -590.560687 
L 265.948872 -600.294592 
L 267.983049 -552.273991 
L 270.017225 -530.210472 
L 272.051401 -563.954678 
L 274.085578 -633.389871 
L 276.119754 -552.273991 
L 278.15393 -586.018197 
L 280.188107 -581.475708 
L 282.222283 -549.029356 
L 284.256459 -612.624206 
L 286.290636 -530.859399 
L 288.324812 -604.837082 
L 290.358988 -560.710043 
L 292.393165 -584.720343 
L 294.427341 -613.273133 
L 296.461517 -552.922918 
L 298.495694 -533.455107 
L 300.52987 -495.817339 
L 302.564046 -568.497167 
L 304.598223 -515.934077 
L 306.632399 -618.464549 
L 308.666576 -600.943519 
L 310.700752 -499.710901 
L 312.734928 -525.019056 
L 314.769105 -510.093734 
L 316.803281 -574.986438 
L 318.837457 -414.052532 
L 320.871634 -549.678283 
L 322.90581 -499.061974 
L 324.939986 -589.91176 
L 326.974163 -468.562403 
L 329.008339 -557.465408 
L 331.042515 -607.43279 
L 333.076692 -495.817339 
L 335.110868 -519.827639 
L 337.145044 -555.518627 
L 339.179221 -620.41133 
L 341.213397 -593.156395 
L 343.247573 -649.613047 
L 345.28175 -586.018197 
L 347.315926 -515.934077 
L 349.350103 -590.560687 
L 351.384279 -580.177854 
L 353.418455 -595.103176 
L 355.452632 -630.794163 
L 357.486808 -602.241373 
L 359.520984 -571.092876 
L 361.555161 -539.944378 
L 363.589337 -613.92206 
L 365.623513 -599.645665 
L 367.65769 -523.721202 
L 369.691866 -580.177854 
L 371.726042 -531.508326 
L 373.760219 -651.559828 
L 375.794395 -587.316052 
L 377.828571 -681.410472 
L 379.862748 -624.304893 
L 381.896924 -584.720343 
L 383.9311 -631.44309 
L 385.965277 -506.849099 
L 387.999453 -537.997597 
L 390.03363 -568.497167 
L 392.067806 -556.167554 
L 394.101982 -563.954678 
L 396.136159 -460.126352 
L 398.170335 -571.092876 
L 400.204511 -537.997597 
L 402.238688 -606.134936 
L 404.272864 -646.368412 
L 406.30704 -600.943519 
L 408.341217 -586.018197 
L 410.375393 -531.508326 
L 412.409569 -558.763262 
L 414.443746 -635.985579 
L 416.477922 -608.081717 
L 418.512098 -507.498026 
L 420.546275 -576.284292 
L 422.580451 -632.092017 
L 424.614627 -606.134936 
L 426.648804 -624.95382 
L 428.68298 -495.168412 
L 430.717157 -580.826781 
L 432.751333 -558.114335 
L 434.785509 -557.465408 
L 436.819686 -623.007039 
L 438.853862 -528.263691 
L 440.888038 -422.488584 
L 442.922215 -623.007039 
L 444.956391 -600.943519 
L 446.990567 -543.189013 
L 449.024744 -533.455107 
L 451.05892 -624.304893 
L 453.093096 -632.092017 
L 455.127273 -634.687725 
L 457.161449 -554.8697 
L 459.195625 -515.28515 
L 461.229802 -516.583004 
L 463.263978 -537.34867 
L 465.298154 -533.455107 
L 467.332331 -537.997597 
L 469.366507 -582.773562 
L 471.400684 -503.604464 
L 473.43486 -580.826781 
L 475.469036 -617.815622 
L 477.503213 -589.262833 
L 479.537389 -571.741803 
L 481.571565 -516.583004 
L 483.605742 -630.145236 
L 485.639918 -560.061116 
L 487.674094 -624.95382 
L 489.708271 -619.762403 
L 491.742447 -666.48515 
L 493.776623 -559.412189 
L 495.8108 -502.306609 
L 497.844976 -581.475708 
L 499.879152 -652.208755 
L 501.913329 -516.583004 
L 503.947505 -665.187296 
L 505.981681 -606.783863 
L 508.015858 -613.273133 
L 510.050034 -618.464549 
L 512.084211 -667.134077 
L 514.118387 -560.710043 
L 516.152563 -560.710043 
L 518.18674 -661.293734 
L 520.220916 -576.284292 
L 522.255092 -589.262833 
L 524.289269 -595.103176 
L 526.323445 -683.357253 
L 528.357621 -637.283433 
L 530.391798 -606.134936 
L 532.425974 -575.635365 
L 534.46015 -685.304034 
L 536.494327 -595.103176 
L 538.528503 -543.83794 
L 540.562679 -560.061116 
L 542.596856 -619.762403 
L 544.631032 -555.518627 
L 546.665208 -604.837082 
L 548.699385 -571.092876 
L 550.733561 -593.156395 
L 552.767738 -625.602747 
L 554.801914 -554.220773 
L 556.83609 -607.43279 
L 558.870267 -639.879142 
L 560.904443 -635.985579 
L 562.938619 -571.092876 
L 564.972796 -645.719485 
L 567.006972 -616.517768 
L 569.041148 -620.41133 
L 571.075325 -589.262833 
L 573.109501 -579.528927 
L 575.143677 -571.092876 
L 577.177854 -608.081717 
L 579.21203 -618.464549 
L 581.246206 -628.198455 
L 583.280383 -552.273991 
L 585.314559 -649.613047 
L 587.348735 -515.28515 
L 589.382912 -523.721202 
L 591.417088 -549.029356 
L 593.451265 -575.635365 
L 595.485441 -615.868841 
L 597.519617 -602.8903 
L 599.553794 -533.455107 
L 601.58797 -557.465408 
L 603.622146 -557.465408 
L 605.656323 -646.368412 
L 607.690499 -602.8903 
L 609.724675 -503.604464 
L 611.758852 -581.475708 
L 613.793028 -664.538369 
L 615.827204 -536.050815 
L 617.861381 -580.177854 
L 619.895557 -602.241373 
L 621.929733 -655.453391 
L 623.96391 -645.070558 
L 625.998086 -554.8697 
L 628.032262 -639.879142 
L 630.066439 -606.134936 
L 632.100615 -582.773562 
L 634.134792 -495.168412 
L 636.168968 -575.635365 
L 638.203144 -608.081717 
L 640.237321 -515.28515 
L 642.271497 -593.156395 
L 644.305673 -619.762403 
L 646.33985 -628.847382 
L 648.374026 -625.602747 
L 650.408202 -602.241373 
L 652.442379 -666.48515 
L 654.476555 -454.934936 
L 656.510731 -547.731502 
L 658.544908 -638.581288 
L 660.579084 -560.061116 
L 662.61326 -593.156395 
L 664.647437 -698.282575 
L 666.681613 -602.241373 
L 668.715789 -574.337511 
L 670.749966 -617.166695 
L 672.784142 -645.070558 
L 674.818319 -548.380429 
L 676.852495 -615.868841 
L 678.886671 -504.902318 
L 680.920848 -554.8697 
L 682.955024 -521.125494 
L 684.9892 -539.944378 
L 687.023377 -514.636223 
L 689.057553 -555.518627 
L 691.091729 -600.294592 
L 693.125906 -603.539227 
L 695.160082 -541.242232 
L 697.194258 -554.8697 
L 699.228435 -590.560687 
L 701.262611 -623.655966 
L 703.296787 -628.847382 
L 705.330964 -595.752103 
L 707.36514 -654.804464 
L 709.399316 -618.464549 
L 711.433493 -598.347811 
L 713.467669 -650.910901 
L 715.501846 -607.43279 
L 717.536022 -633.389871 
L 719.570198 -625.602747 
L 721.604375 -598.347811 
L 723.638551 -574.986438 
L 725.672727 -505.551245 
L 727.706904 -600.943519 
L 729.74108 -495.168412 
L 731.775256 -640.528069 
L 733.809433 -679.463691 
L 735.843609 -672.974421 
L 737.877785 -589.262833 
L 739.911962 -587.964979 
L 741.946138 -613.273133 
L 743.980314 -645.719485 
L 746.014491 -549.678283 
L 748.048667 -576.284292 
L 750.082843 -582.773562 
L 752.11702 -637.932361 
L 754.151196 -608.081717 
L 756.185373 -655.453391 
L 758.219549 -597.698884 
L 760.253725 -655.453391 
L 762.287902 -503.604464 
L 764.322078 -518.529785 
L 766.356254 -581.475708 
L 768.390431 -536.050815 
L 770.424607 -628.847382 
L 772.458783 -620.41133 
L 774.49296 -634.687725 
L 776.527136 -612.624206 
L 778.561312 -659.346953 
L 780.595489 -631.44309 
L 782.629665 -655.453391 
L 784.663841 -635.985579 
L 786.698018 -668.431931 
L 788.732194 -621.709185 
L 790.76637 -584.720343 
L 792.800547 -595.103176 
L 794.834723 -681.410472 
L 796.8689 -633.389871 
L 798.903076 -679.463691 
L 800.937252 -590.560687 
L 802.971429 -604.837082 
L 805.005605 -667.134077 
L 807.039781 -548.380429 
L 809.073958 -645.719485 
L 811.108134 -525.019056 
L 813.14231 -600.943519 
L 815.176487 -617.166695 
L 817.210663 -633.389871 
L 819.244839 -672.974421 
L 821.279016 -582.773562 
L 823.313192 -571.092876 
L 825.347368 -528.263691 
L 827.381545 -607.43279 
L 829.415721 -647.666266 
L 831.449897 -695.686867 
L 833.484074 -640.528069 
L 835.51825 -693.740086 
L 837.552427 -661.293734 
L 839.586603 -612.624206 
L 841.620779 -593.156395 
L 843.654956 -639.879142 
L 845.689132 -665.836223 
L 847.723308 -575.635365 
L 849.757485 -602.241373 
L 851.791661 -672.325494 
L 853.825837 -618.464549 
L 855.860014 -552.273991 
L 857.89419 -653.506609 
L 859.928366 -624.95382 
L 861.962543 -648.315193 
L 863.996719 -619.762403 
L 866.030895 -599.645665 
L 868.065072 -667.783004 
L 870.099248 -582.773562 
L 872.133424 -624.95382 
L 874.167601 -612.624206 
L 876.201777 -645.719485 
L 878.235954 -568.497167 
L 880.27013 -624.95382 
L 882.304306 -613.92206 
L 884.338483 -667.134077 
L 886.372659 -617.166695 
L 888.406835 -699.580429 
L 890.441012 -622.358112 
L 892.475188 -672.974421 
L 894.509364 -613.92206 
L 896.543541 -638.581288 
L 898.577717 -600.943519 
L 900.611893 -557.465408 
L 902.64607 -644.421631 
L 904.680246 -617.166695 
L 906.714422 -654.804464 
L 908.748599 -638.581288 
L 910.782775 -582.773562 
L 912.816951 -574.337511 
L 914.851128 -607.43279 
L 916.885304 -579.528927 
L 918.919481 -659.346953 
L 920.953657 -661.293734 
L 922.987833 -597.049957 
L 925.02201 -625.602747 
L 927.056186 -663.240515 
L 929.090362 -703.473991 
L 931.124539 -641.176996 
L 933.158715 -661.293734 
L 935.192891 -640.528069 
L 937.227068 -613.92206 
L 939.261244 -665.836223 
L 941.29542 -730.08 
L 943.329597 -575.635365 
L 945.363773 -624.304893 
L 947.397949 -587.316052 
L 949.432126 -673.623348 
L 951.466302 -671.676567 
L 953.500478 -639.879142 
L 955.534655 -581.475708 
L 957.568831 -668.431931 
L 959.603008 -639.879142 
L 961.637184 -649.613047 
L 963.67136 -684.655107 
L 965.705537 -680.112618 
L 967.739713 -645.719485 
L 969.773889 -584.720343 
L 971.808066 -602.241373 
L 973.842242 -640.528069 
L 975.876418 -589.91176 
L 977.910595 -607.43279 
L 979.944771 -643.772704 
L 981.978947 -650.910901 
L 984.013124 -652.208755 
L 986.0473 -673.623348 
L 988.081476 -669.729785 
L 990.115653 -655.453391 
L 992.149829 -612.624206 
L 994.184005 -503.604464 
L 996.218182 -563.954678 
L 996.218182 -395.233648 
L 996.218182 -395.233648 
L 994.184005 -358.244807 
L 992.149829 -460.775279 
L 990.115653 -450.392446 
L 988.081476 -436.116052 
L 986.0473 -382.904034 
L 984.013124 -469.21133 
L 981.978947 -438.062833 
L 979.944771 -460.775279 
L 977.910595 -481.540944 
L 975.876418 -434.16927 
L 973.842242 -415.999313 
L 971.808066 -437.413906 
L 969.773889 -342.021631 
L 967.739713 -443.254249 
L 965.705537 -538.646524 
L 963.67136 -501.657682 
L 961.637184 -456.23279 
L 959.603008 -481.540944 
L 957.568831 -452.988155 
L 955.534655 -410.15897 
L 953.500478 -513.987296 
L 951.466302 -579.528927 
L 949.432126 -497.115193 
L 947.397949 -501.657682 
L 945.363773 -512.689442 
L 943.329597 -431.573562 
L 941.29542 -505.551245 
L 939.261244 -520.476567 
L 937.227068 -425.733219 
L 935.192891 -448.445665 
L 933.158715 -540.593305 
L 931.124539 -497.115193 
L 929.090362 -532.157253 
L 927.056186 -458.179571 
L 925.02201 -430.924635 
L 922.987833 -476.349528 
L 920.953657 -492.572704 
L 918.919481 -445.20103 
L 916.885304 -396.531502 
L 914.851128 -481.540944 
L 912.816951 -482.189871 
L 910.782775 -424.435365 
L 908.748599 -467.264549 
L 906.714422 -483.487725 
L 904.680246 -488.679142 
L 902.64607 -461.424206 
L 900.611893 -401.722918 
L 898.577717 -455.583863 
L 896.543541 -467.264549 
L 894.509364 -425.733219 
L 892.475188 -448.445665 
L 890.441012 -466.615622 
L 888.406835 -519.178712 
L 886.372659 -488.679142 
L 884.338483 -486.732361 
L 882.304306 -425.733219 
L 880.27013 -414.701459 
L 878.235954 -423.137511 
L 876.201777 -443.254249 
L 874.167601 -379.010472 
L 872.133424 -448.445665 
L 870.099248 -424.435365 
L 868.065072 -502.955536 
L 866.030895 -359.542661 
L 863.996719 -436.764979 
L 861.962543 -489.976996 
L 859.928366 -513.338369 
L 857.89419 -517.231931 
L 855.860014 -423.786438 
L 853.825837 -325.149528 
L 851.791661 -401.073991 
L 849.757485 -437.413906 
L 847.723308 -497.76412 
L 845.689132 -520.476567 
L 843.654956 -481.540944 
L 841.620779 -398.478283 
L 839.586603 -460.775279 
L 837.552427 -509.444807 
L 835.51825 -362.787296 
L 833.484074 -448.445665 
L 831.449897 -587.964979 
L 829.415721 -506.200172 
L 827.381545 -481.540944 
L 825.347368 -398.478283 
L 823.313192 -371.223348 
L 821.279016 -424.435365 
L 819.244839 -480.892017 
L 817.210663 -488.030215 
L 815.176487 -488.679142 
L 813.14231 -455.583863 
L 811.108134 -353.702318 
L 809.073958 -525.019056 
L 807.039781 -345.915193 
L 805.005605 -486.732361 
L 802.971429 -371.223348 
L 800.937252 -368.627639 
L 798.903076 -393.935794 
L 796.8689 -504.902318 
L 794.834723 -456.881717 
L 792.800547 -412.105751 
L 790.76637 -342.021631 
L 788.732194 -354.351245 
L 786.698018 -452.988155 
L 784.663841 -436.116052 
L 782.629665 -417.946094 
L 780.595489 -473.104893 
L 778.561312 -445.20103 
L 776.527136 -460.775279 
L 774.49296 -454.286009 
L 772.458783 -420.541803 
L 770.424607 -460.126352 
L 768.390431 -342.670558 
L 766.356254 -410.15897 
L 764.322078 -360.191588 
L 762.287902 -358.244807 
L 760.253725 -384.201888 
L 758.219549 -506.849099 
L 756.185373 -384.201888 
L 754.151196 -415.999313 
L 752.11702 -466.615622 
L 750.082843 -441.307468 
L 748.048667 -366.031931 
L 746.014491 -361.489442 
L 743.980314 -443.254249 
L 741.946138 -410.807897 
L 739.911962 -451.6903 
L 737.877785 -417.946094 
L 735.843609 -480.892017 
L 733.809433 -491.27485 
L 731.775256 -448.445665 
L 729.74108 -351.106609 
L 727.706904 -325.798455 
L 725.672727 -404.318627 
L 723.638551 -416.64824 
L 721.604375 -490.625923 
L 719.570198 -430.924635 
L 717.536022 -504.902318 
L 715.501846 -449.094592 
L 713.467669 -422.488584 
L 711.433493 -490.625923 
L 709.399316 -453.637082 
L 707.36514 -483.487725 
L 705.330964 -443.903176 
L 703.296787 -378.361545 
L 701.262611 -335.532361 
L 699.228435 -368.627639 
L 697.194258 -371.872275 
L 695.160082 -336.181288 
L 693.125906 -388.095451 
L 691.091729 -375.765837 
L 689.057553 -355.649099 
L 687.023377 -331.638798 
L 684.9892 -403.6697 
L 682.955024 -292.703176 
L 680.920848 -371.872275 
L 678.886671 -324.500601 
L 676.852495 -391.340086 
L 674.818319 -345.915193 
L 672.784142 -379.010472 
L 670.749966 -504.253391 
L 668.715789 -482.189871 
L 666.681613 -421.839657 
L 664.647437 -423.137511 
L 662.61326 -398.478283 
L 660.579084 -415.999313 
L 658.544908 -467.264549 
L 656.510731 -395.882575 
L 654.476555 -342.021631 
L 652.442379 -373.170129 
L 650.408202 -437.413906 
L 648.374026 -430.924635 
L 646.33985 -460.126352 
L 644.305673 -534.104034 
L 642.271497 -463.370987 
L 640.237321 -394.584721 
L 638.203144 -415.999313 
L 636.168968 -383.552961 
L 634.134792 -383.552961 
L 632.100615 -424.435365 
L 630.066439 -401.073991 
L 628.032262 -513.987296 
L 625.998086 -371.872275 
L 623.96391 -411.456824 
L 621.929733 -450.392446 
L 619.895557 -421.839657 
L 617.861381 -346.56412 
L 615.827204 -390.691159 
L 613.793028 -424.435365 
L 611.758852 -410.15897 
L 609.724675 -375.11691 
L 607.690499 -438.062833 
L 605.656323 -475.051674 
L 603.622146 -401.722918 
L 601.58797 -401.722918 
L 599.553794 -328.394163 
L 597.519617 -339.425923 
L 595.485441 -391.340086 
L 593.451265 -383.552961 
L 591.417088 -377.712618 
L 589.382912 -387.446524 
L 587.348735 -394.584721 
L 585.314559 -406.914335 
L 583.280383 -439.360687 
L 581.246206 -395.882575 
L 579.21203 -405.616481 
L 577.177854 -431.573562 
L 575.143677 -355.649099 
L 573.109501 -396.531502 
L 571.075325 -417.946094 
L 569.041148 -386.797597 
L 567.006972 -488.030215 
L 564.972796 -443.254249 
L 562.938619 -355.649099 
L 560.904443 -420.541803 
L 558.870267 -481.540944 
L 556.83609 -449.094592 
L 554.801914 -389.393305 
L 552.767738 -430.924635 
L 550.733561 -463.370987 
L 548.699385 -355.649099 
L 546.665208 -321.904893 
L 544.631032 -355.649099 
L 542.596856 -436.764979 
L 540.562679 -415.999313 
L 538.528503 -432.222489 
L 536.494327 -380.957253 
L 534.46015 -403.6697 
L 532.425974 -383.552961 
L 530.391798 -401.073991 
L 528.357621 -369.925494 
L 526.323445 -518.529785 
L 524.289269 -348.510901 
L 522.255092 -417.946094 
L 520.220916 -366.031931 
L 518.18674 -509.444807 
L 516.152563 -366.031931 
L 514.118387 -366.031931 
L 512.084211 -486.732361 
L 510.050034 -405.616481 
L 508.015858 -410.807897 
L 505.981681 -514.636223 
L 503.947505 -440.658541 
L 501.913329 -345.266266 
L 499.879152 -469.21133 
L 497.844976 -410.15897 
L 495.8108 -343.968412 
L 493.776623 -447.796738 
L 491.742447 -357.59588 
L 489.708271 -436.764979 
L 487.674094 -414.701459 
L 485.639918 -383.552961 
L 483.605742 -441.956395 
L 481.571565 -345.266266 
L 479.537389 -371.872275 
L 477.503213 -417.946094 
L 475.469036 -358.244807 
L 473.43486 -378.361545 
L 471.400684 -358.244807 
L 469.366507 -231.055107 
L 467.332331 -373.170129 
L 465.298154 -328.394163 
L 463.263978 -356.946953 
L 461.229802 -345.266266 
L 459.195625 -394.584721 
L 457.161449 -371.872275 
L 455.127273 -454.286009 
L 453.093096 -391.989013 
L 451.05892 -447.796738 
L 449.024744 -442.605322 
L 446.990567 -318.660258 
L 444.956391 -325.798455 
L 442.922215 -401.073991 
L 440.888038 -309.575279 
L 438.853862 -398.478283 
L 436.819686 -401.073991 
L 434.785509 -401.722918 
L 432.751333 -336.181288 
L 430.717157 -378.361545 
L 428.68298 -318.660258 
L 426.648804 -414.701459 
L 424.614627 -401.073991 
L 422.580451 -391.989013 
L 420.546275 -366.031931 
L 418.512098 -451.6903 
L 416.477922 -351.106609 
L 414.443746 -420.541803 
L 412.409569 -480.892017 
L 410.375393 -362.787296 
L 408.341217 -373.170129 
L 406.30704 -455.583863 
L 404.272864 -475.051674 
L 402.238688 -401.073991 
L 400.204511 -373.170129 
L 398.170335 -355.649099 
L 396.136159 -304.383863 
L 394.101982 -395.233648 
L 392.067806 -322.55382 
L 390.03363 -423.137511 
L 387.999453 -373.170129 
L 385.965277 -306.979571 
L 383.9311 -473.104893 
L 381.896924 -471.807039 
L 379.862748 -480.24309 
L 377.828571 -456.881717 
L 375.794395 -404.318627 
L 373.760219 -388.095451 
L 371.726042 -379.659399 
L 369.691866 -346.56412 
L 367.65769 -387.446524 
L 365.623513 -359.542661 
L 363.589337 -442.605322 
L 361.555161 -403.6697 
L 359.520984 -371.223348 
L 357.486808 -437.413906 
L 355.452632 -425.733219 
L 353.418455 -412.105751 
L 351.384279 -346.56412 
L 349.350103 -385.499742 
L 347.315926 -313.468841 
L 345.28175 -373.170129 
L 343.247573 -456.23279 
L 341.213397 -398.478283 
L 339.179221 -338.776996 
L 337.145044 -355.649099 
L 335.110868 -406.914335 
L 333.076692 -253.118627 
L 331.042515 -481.540944 
L 329.008339 -401.722918 
L 326.974163 -360.840515 
L 324.939986 -352.404464 
L 322.90581 -330.340944 
L 320.871634 -361.489442 
L 318.837457 -302.437082 
L 316.803281 -416.64824 
L 314.769105 -384.201888 
L 312.734928 -369.276567 
L 310.700752 -280.373562 
L 308.666576 -455.583863 
L 306.632399 -291.405322 
L 304.598223 -313.468841 
L 302.564046 -423.137511 
L 300.52987 -301.139227 
L 298.495694 -425.733219 
L 296.461517 -293.352103 
L 294.427341 -410.807897 
L 292.393165 -391.340086 
L 290.358988 -350.457682 
L 288.324812 -321.904893 
L 286.290636 -347.861974 
L 284.256459 -379.010472 
L 282.222283 -458.179571 
L 280.188107 -410.15897 
L 278.15393 -373.170129 
L 276.119754 -309.575279 
L 274.085578 -488.030215 
L 272.051401 -395.233648 
L 270.017225 -316.064549 
L 267.983049 -439.360687 
L 265.948872 -406.914335 
L 263.914696 -368.627639 
L 261.880519 -336.830215 
L 259.846343 -344.617339 
L 257.812167 -467.913476 
L 255.77799 -403.020773 
L 253.743814 -378.361545 
L 251.709638 -501.657682 
L 249.675461 -292.054249 
L 247.641285 -330.340944 
L 245.607109 -379.659399 
L 243.572932 -297.894592 
L 241.538756 -336.830215 
L 239.50458 -416.64824 
L 237.470403 -318.660258 
L 235.436227 -321.904893 
L 233.402051 -425.733219 
L 231.367874 -338.128069 
L 229.333698 -295.947811 
L 227.299522 -340.07485 
L 225.265345 -395.882575 
L 223.231169 -379.659399 
L 221.196992 -347.861974 
L 219.162816 -408.861116 
L 217.12864 -398.478283 
L 215.094463 -336.181288 
L 213.060287 -268.692876 
L 211.026111 -292.054249 
L 208.991934 -282.96927 
L 206.957758 -247.278283 
L 204.923582 -356.946953 
L 202.889405 -207.693734 
L 200.855229 -162.917768 
L 198.821053 -174.598455 
L 196.786876 -158.375279 
L 194.7527 -125.28 
L 192.718524 -127.226781 
L 190.684347 -138.907468 
L 188.650171 -127.226781 
L 186.615995 -125.928927 
L 184.581818 -138.907468 
z
" id="mfc1e36b4be" style="stroke:#ffffff;stroke-opacity:0.2;"/>
    </defs>
    <g clip-path="url(#p4ff84207ee)">
     <use style="fill:#4c72b0;fill-opacity:0.2;stroke:#ffffff;stroke-opacity:0.2;" x="0" xlink:href="#mfc1e36b4be" y="864"/>
    </g>
   </g>
   <g id="line2d_15">
    <path clip-path="url(#p4ff84207ee)" d="M 184.581818 725.092532 
L 186.615995 716.656481 
L 188.650171 708.869356 
L 190.684347 692.64618 
L 192.718524 708.869356 
L 194.7527 692.64618 
L 196.786876 619.966352 
L 198.821053 611.5303 
L 200.855229 586.871073 
L 202.889405 570.647897 
L 204.923582 416.852189 
L 206.957758 522.627296 
L 211.026111 457.734592 
L 213.060287 465.521717 
L 215.094463 416.852189 
L 217.12864 400.629013 
L 219.162816 375.969785 
L 221.196992 424.639313 
L 223.231169 408.416137 
L 225.265345 376.618712 
L 227.299522 392.192961 
L 229.333698 473.957768 
L 231.367874 457.734592 
L 233.402051 344.172361 
L 235.436227 400.629013 
L 237.470403 416.852189 
L 239.50458 368.182661 
L 241.538756 449.298541 
L 243.572932 424.639313 
L 245.607109 408.416137 
L 247.641285 449.298541 
L 249.675461 481.744893 
L 251.709638 319.513133 
L 253.743814 384.405837 
L 255.77799 392.841888 
L 257.812167 327.949185 
L 259.846343 392.192961 
L 261.880519 424.639313 
L 263.914696 384.405837 
L 265.948872 360.395536 
L 267.983049 368.182661 
L 270.017225 440.862489 
L 272.051401 384.405837 
L 274.085578 303.289957 
L 276.119754 433.075365 
L 278.15393 384.405837 
L 280.188107 368.182661 
L 282.222283 360.395536 
L 284.256459 368.182661 
L 286.290636 424.639313 
L 288.324812 400.629013 
L 290.358988 408.416137 
L 292.393165 375.969785 
L 294.427341 351.959485 
L 296.461517 440.862489 
L 298.495694 384.405837 
L 300.52987 465.521717 
L 302.564046 368.182661 
L 304.598223 449.298541 
L 306.632399 409.065064 
L 308.666576 335.736309 
L 310.700752 473.957768 
L 312.734928 416.852189 
L 314.769105 416.852189 
L 316.803281 368.182661 
L 318.837457 505.755193 
L 320.871634 408.416137 
L 322.90581 449.298541 
L 324.939986 392.841888 
L 326.974163 449.298541 
L 331.042515 319.513133 
L 333.076692 489.532017 
L 335.110868 400.629013 
L 337.145044 408.416137 
L 339.179221 384.405837 
L 341.213397 368.182661 
L 343.247573 311.077082 
L 345.28175 384.405837 
L 347.315926 449.298541 
L 349.350103 375.969785 
L 351.384279 400.629013 
L 353.418455 360.395536 
L 355.452632 335.736309 
L 357.486808 344.172361 
L 359.520984 392.841888 
L 361.555161 392.192961 
L 363.589337 335.736309 
L 365.623513 384.405837 
L 367.65769 408.416137 
L 369.691866 400.629013 
L 371.726042 408.416137 
L 373.760219 344.172361 
L 375.794395 368.182661 
L 377.828571 294.853906 
L 379.862748 311.726009 
L 381.896924 335.736309 
L 383.9311 311.726009 
L 385.965277 457.085665 
L 387.999453 408.416137 
L 390.03363 368.182661 
L 392.067806 424.639313 
L 394.101982 384.405837 
L 396.136159 481.744893 
L 398.170335 400.629013 
L 400.204511 408.416137 
L 402.238688 360.395536 
L 404.272864 303.289957 
L 406.30704 335.736309 
L 408.341217 384.405837 
L 410.375393 416.852189 
L 412.409569 344.172361 
L 414.443746 335.736309 
L 416.477922 384.405837 
L 418.512098 384.405837 
L 420.546275 392.841888 
L 422.580451 351.959485 
L 424.614627 360.395536 
L 426.648804 344.172361 
L 428.68298 457.085665 
L 430.717157 384.405837 
L 432.751333 416.852189 
L 436.819686 351.959485 
L 438.853862 400.629013 
L 440.888038 497.968069 
L 442.922215 351.959485 
L 444.956391 400.629013 
L 446.990567 433.075365 
L 449.024744 375.969785 
L 451.05892 327.949185 
L 453.093096 351.959485 
L 455.127273 319.513133 
L 457.161449 400.629013 
L 459.195625 409.065064 
L 461.229802 433.075365 
L 463.263978 416.852189 
L 465.298154 433.075365 
L 467.332331 408.416137 
L 469.366507 457.085665 
L 471.400684 433.075365 
L 473.43486 384.405837 
L 475.469036 375.969785 
L 477.503213 360.395536 
L 479.537389 392.192961 
L 481.571565 433.075365 
L 483.605742 327.949185 
L 485.639918 392.192961 
L 487.674094 344.172361 
L 489.708271 335.736309 
L 491.742447 351.959485 
L 493.776623 360.395536 
L 495.8108 440.862489 
L 497.844976 368.182661 
L 499.879152 303.289957 
L 501.913329 433.075365 
L 503.947505 311.077082 
L 505.981681 303.289957 
L 508.015858 351.959485 
L 510.050034 351.959485 
L 512.084211 287.066781 
L 514.118387 400.629013 
L 516.152563 400.629013 
L 518.18674 278.63073 
L 520.220916 392.841888 
L 522.255092 360.395536 
L 524.289269 392.192961 
L 526.323445 263.056481 
L 528.357621 360.395536 
L 530.391798 360.395536 
L 532.425974 384.405837 
L 534.46015 319.513133 
L 536.494327 375.969785 
L 540.562679 375.969785 
L 542.596856 335.736309 
L 544.631032 408.416137 
L 546.665208 400.629013 
L 548.699385 400.629013 
L 550.733561 335.736309 
L 552.767738 335.736309 
L 554.801914 392.192961 
L 556.83609 335.736309 
L 558.870267 303.289957 
L 560.904443 335.736309 
L 562.938619 400.629013 
L 564.972796 319.513133 
L 567.006972 311.726009 
L 569.041148 360.395536 
L 571.075325 360.395536 
L 573.109501 375.969785 
L 575.143677 400.629013 
L 577.177854 344.172361 
L 579.21203 351.959485 
L 581.246206 351.959485 
L 583.280383 368.182661 
L 585.314559 335.736309 
L 587.348735 409.065064 
L 589.382912 408.416137 
L 591.417088 400.629013 
L 593.451265 384.405837 
L 595.485441 360.395536 
L 597.519617 392.841888 
L 599.553794 433.075365 
L 601.58797 384.405837 
L 603.622146 384.405837 
L 605.656323 303.289957 
L 607.690499 343.523433 
L 609.724675 424.639313 
L 611.758852 368.182661 
L 613.793028 319.513133 
L 615.827204 400.629013 
L 617.861381 400.629013 
L 619.895557 351.959485 
L 621.929733 311.077082 
L 623.96391 335.736309 
L 625.998086 400.629013 
L 628.032262 287.066781 
L 630.066439 360.395536 
L 632.100615 360.395536 
L 634.134792 424.639313 
L 636.168968 384.405837 
L 638.203144 351.959485 
L 640.237321 409.065064 
L 642.271497 335.736309 
L 644.305673 287.066781 
L 646.33985 319.513133 
L 648.374026 335.736309 
L 650.408202 344.172361 
L 652.442379 344.172361 
L 654.476555 465.521717 
L 656.510731 392.192961 
L 658.544908 311.077082 
L 660.579084 375.969785 
L 662.61326 368.182661 
L 664.647437 303.289957 
L 666.681613 351.959485 
L 668.715789 335.736309 
L 670.749966 303.289957 
L 672.784142 351.959485 
L 674.818319 416.852189 
L 676.852495 360.395536 
L 678.886671 449.298541 
L 680.920848 400.629013 
L 682.955024 457.085665 
L 684.9892 392.192961 
L 687.023377 440.862489 
L 691.091729 375.969785 
L 693.125906 368.182661 
L 695.160082 425.28824 
L 697.194258 400.629013 
L 699.228435 384.405837 
L 701.262611 384.405837 
L 703.296787 360.395536 
L 705.330964 344.172361 
L 707.36514 294.853906 
L 709.399316 327.949185 
L 711.433493 319.513133 
L 713.467669 327.300258 
L 715.501846 335.736309 
L 717.536022 294.853906 
L 719.570198 335.736309 
L 721.604375 319.513133 
L 723.638551 368.182661 
L 725.672727 409.065064 
L 727.706904 400.629013 
L 729.74108 440.862489 
L 731.775256 319.513133 
L 733.809433 278.63073 
L 735.843609 287.066781 
L 737.877785 360.395536 
L 739.911962 344.172361 
L 741.946138 351.959485 
L 743.980314 319.513133 
L 746.014491 408.416137 
L 748.048667 392.841888 
L 752.11702 311.726009 
L 754.151196 351.959485 
L 756.185373 344.172361 
L 758.219549 311.726009 
L 760.253725 344.172361 
L 762.287902 433.075365 
L 764.322078 424.639313 
L 766.356254 368.182661 
L 768.390431 424.639313 
L 770.424607 319.513133 
L 772.458783 343.523433 
L 774.49296 319.513133 
L 776.527136 327.300258 
L 778.561312 311.726009 
L 780.595489 311.726009 
L 782.629665 327.300258 
L 784.663841 327.949185 
L 786.698018 303.289957 
L 788.732194 375.969785 
L 790.76637 400.629013 
L 792.800547 360.395536 
L 794.834723 294.853906 
L 796.8689 294.853906 
L 798.903076 327.300258 
L 800.937252 384.405837 
L 802.971429 375.969785 
L 805.005605 287.066781 
L 807.039781 416.852189 
L 809.073958 278.63073 
L 811.108134 424.639313 
L 813.14231 335.736309 
L 815.176487 311.077082 
L 817.210663 303.289957 
L 819.244839 287.066781 
L 821.279016 360.395536 
L 823.313192 392.841888 
L 825.347368 400.629013 
L 827.381545 319.513133 
L 829.415721 287.066781 
L 831.449897 222.174077 
L 833.484074 319.513133 
L 835.51825 335.736309 
L 837.552427 278.63073 
L 839.586603 327.300258 
L 841.620779 368.182661 
L 843.654956 303.289957 
L 845.689132 270.843605 
L 847.723308 327.300258 
L 849.757485 344.172361 
L 851.791661 327.300258 
L 853.825837 392.192961 
L 855.860014 375.969785 
L 857.89419 278.63073 
L 859.928366 294.853906 
L 861.962543 294.853906 
L 863.996719 335.736309 
L 866.030895 384.405837 
L 868.065072 278.63073 
L 870.099248 360.395536 
L 872.133424 327.300258 
L 874.167601 368.182661 
L 876.201777 319.513133 
L 878.235954 368.182661 
L 880.27013 344.172361 
L 882.304306 344.172361 
L 884.338483 287.066781 
L 886.372659 311.077082 
L 888.406835 254.620429 
L 890.441012 319.513133 
L 892.475188 303.289957 
L 894.509364 344.172361 
L 896.543541 311.077082 
L 898.577717 335.736309 
L 900.611893 384.405837 
L 902.64607 311.077082 
L 904.680246 311.077082 
L 906.714422 294.853906 
L 908.748599 311.077082 
L 910.782775 360.395536 
L 912.816951 335.736309 
L 914.851128 319.513133 
L 916.885304 375.969785 
L 918.919481 311.726009 
L 920.953657 287.066781 
L 922.987833 327.300258 
L 925.02201 335.736309 
L 927.056186 303.289957 
L 929.090362 246.184378 
L 931.124539 294.853906 
L 933.158715 263.056481 
L 935.192891 319.513133 
L 937.227068 344.172361 
L 939.261244 270.843605 
L 941.29542 246.184378 
L 943.329597 360.395536 
L 945.363773 295.502833 
L 947.397949 319.513133 
L 951.466302 238.397253 
L 953.500478 287.066781 
L 955.534655 368.182661 
L 957.568831 303.289957 
L 959.603008 303.289957 
L 961.637184 311.077082 
L 963.67136 270.843605 
L 965.705537 254.620429 
L 967.739713 319.513133 
L 969.773889 400.629013 
L 971.808066 344.172361 
L 973.842242 335.736309 
L 975.876418 351.959485 
L 977.910595 319.513133 
L 979.944771 311.726009 
L 981.978947 319.513133 
L 984.013124 303.289957 
L 986.0473 335.736309 
L 988.081476 311.077082 
L 990.115653 311.077082 
L 992.149829 327.300258 
L 994.184005 433.075365 
L 996.218182 384.405837 
L 996.218182 384.405837 
" style="fill:none;stroke:#4c72b0;stroke-linecap:round;stroke-width:1.5;"/>
   </g>
   <g id="patch_3">
    <path d="M 144 768.96 
L 144 103.68 
" style="fill:none;stroke:#ffffff;stroke-linecap:square;stroke-linejoin:miter;stroke-width:1.25;"/>
   </g>
   <g id="patch_4">
    <path d="M 1036.8 768.96 
L 1036.8 103.68 
" style="fill:none;stroke:#ffffff;stroke-linecap:square;stroke-linejoin:miter;stroke-width:1.25;"/>
   </g>
   <g id="patch_5">
    <path d="M 144 768.96 
L 1036.8 768.96 
" style="fill:none;stroke:#ffffff;stroke-linecap:square;stroke-linejoin:miter;stroke-width:1.25;"/>
   </g>
   <g id="patch_6">
    <path d="M 144 103.68 
L 1036.8 103.68 
" style="fill:none;stroke:#ffffff;stroke-linecap:square;stroke-linejoin:miter;stroke-width:1.25;"/>
   </g>
   <g id="text_17">
    <!-- DDPG + HER: slide_beast task success rate in training for UR5 over 1 seed -->
    <g style="fill:#262626;" transform="translate(366.010312 97.68)scale(0.12 -0.12)">
     <defs>
      <path d="M 19.671875 64.796875 
L 19.671875 8.109375 
L 31.59375 8.109375 
Q 46.6875 8.109375 53.6875 14.9375 
Q 60.6875 21.78125 60.6875 36.53125 
Q 60.6875 51.171875 53.6875 57.984375 
Q 46.6875 64.796875 31.59375 64.796875 
z
M 9.8125 72.90625 
L 30.078125 72.90625 
Q 51.265625 72.90625 61.171875 64.09375 
Q 71.09375 55.28125 71.09375 36.53125 
Q 71.09375 17.671875 61.125 8.828125 
Q 51.171875 0 30.078125 0 
L 9.8125 0 
z
" id="DejaVuSans-68"/>
      <path d="M 19.671875 64.796875 
L 19.671875 37.40625 
L 32.078125 37.40625 
Q 38.96875 37.40625 42.71875 40.96875 
Q 46.484375 44.53125 46.484375 51.125 
Q 46.484375 57.671875 42.71875 61.234375 
Q 38.96875 64.796875 32.078125 64.796875 
z
M 9.8125 72.90625 
L 32.078125 72.90625 
Q 44.34375 72.90625 50.609375 67.359375 
Q 56.890625 61.8125 56.890625 51.125 
Q 56.890625 40.328125 50.609375 34.8125 
Q 44.34375 29.296875 32.078125 29.296875 
L 19.671875 29.296875 
L 19.671875 0 
L 9.8125 0 
z
" id="DejaVuSans-80"/>
      <path d="M 59.515625 10.40625 
L 59.515625 29.984375 
L 43.40625 29.984375 
L 43.40625 38.09375 
L 69.28125 38.09375 
L 69.28125 6.78125 
Q 63.578125 2.734375 56.6875 0.65625 
Q 49.8125 -1.421875 42 -1.421875 
Q 24.90625 -1.421875 15.25 8.5625 
Q 5.609375 18.5625 5.609375 36.375 
Q 5.609375 54.25 15.25 64.234375 
Q 24.90625 74.21875 42 74.21875 
Q 49.125 74.21875 55.546875 72.453125 
Q 61.96875 70.703125 67.390625 67.28125 
L 67.390625 56.78125 
Q 61.921875 61.421875 55.765625 63.765625 
Q 49.609375 66.109375 42.828125 66.109375 
Q 29.4375 66.109375 22.71875 58.640625 
Q 16.015625 51.171875 16.015625 36.375 
Q 16.015625 21.625 22.71875 14.15625 
Q 29.4375 6.6875 42.828125 6.6875 
Q 48.046875 6.6875 52.140625 7.59375 
Q 56.25 8.5 59.515625 10.40625 
z
" id="DejaVuSans-71"/>
      <path d="M 46 62.703125 
L 46 35.5 
L 73.1875 35.5 
L 73.1875 27.203125 
L 46 27.203125 
L 46 0 
L 37.796875 0 
L 37.796875 27.203125 
L 10.59375 27.203125 
L 10.59375 35.5 
L 37.796875 35.5 
L 37.796875 62.703125 
z
" id="DejaVuSans-43"/>
      <path d="M 9.8125 72.90625 
L 19.671875 72.90625 
L 19.671875 43.015625 
L 55.515625 43.015625 
L 55.515625 72.90625 
L 65.375 72.90625 
L 65.375 0 
L 55.515625 0 
L 55.515625 34.71875 
L 19.671875 34.71875 
L 19.671875 0 
L 9.8125 0 
z
" id="DejaVuSans-72"/>
      <path d="M 9.8125 72.90625 
L 55.90625 72.90625 
L 55.90625 64.59375 
L 19.671875 64.59375 
L 19.671875 43.015625 
L 54.390625 43.015625 
L 54.390625 34.71875 
L 19.671875 34.71875 
L 19.671875 8.296875 
L 56.78125 8.296875 
L 56.78125 0 
L 9.8125 0 
z
" id="DejaVuSans-69"/>
      <path d="M 44.390625 34.1875 
Q 47.5625 33.109375 50.5625 29.59375 
Q 53.5625 26.078125 56.59375 19.921875 
L 66.609375 0 
L 56 0 
L 46.6875 18.703125 
Q 43.0625 26.03125 39.671875 28.421875 
Q 36.28125 30.8125 30.421875 30.8125 
L 19.671875 30.8125 
L 19.671875 0 
L 9.8125 0 
L 9.8125 72.90625 
L 32.078125 72.90625 
Q 44.578125 72.90625 50.734375 67.671875 
Q 56.890625 62.453125 56.890625 51.90625 
Q 56.890625 45.015625 53.6875 40.46875 
Q 50.484375 35.9375 44.390625 34.1875 
z
M 19.671875 64.796875 
L 19.671875 38.921875 
L 32.078125 38.921875 
Q 39.203125 38.921875 42.84375 42.21875 
Q 46.484375 45.515625 46.484375 51.90625 
Q 46.484375 58.296875 42.84375 61.546875 
Q 39.203125 64.796875 32.078125 64.796875 
z
" id="DejaVuSans-82"/>
      <path d="M 11.71875 12.40625 
L 22.015625 12.40625 
L 22.015625 0 
L 11.71875 0 
z
M 11.71875 51.703125 
L 22.015625 51.703125 
L 22.015625 39.3125 
L 11.71875 39.3125 
z
" id="DejaVuSans-58"/>
      <path d="M 9.421875 75.984375 
L 18.40625 75.984375 
L 18.40625 0 
L 9.421875 0 
z
" id="DejaVuSans-108"/>
      <path d="M 9.421875 54.6875 
L 18.40625 54.6875 
L 18.40625 0 
L 9.421875 0 
z
M 9.421875 75.984375 
L 18.40625 75.984375 
L 18.40625 64.59375 
L 9.421875 64.59375 
z
" id="DejaVuSans-105"/>
      <path d="M 45.40625 46.390625 
L 45.40625 75.984375 
L 54.390625 75.984375 
L 54.390625 0 
L 45.40625 0 
L 45.40625 8.203125 
Q 42.578125 3.328125 38.25 0.953125 
Q 33.9375 -1.421875 27.875 -1.421875 
Q 17.96875 -1.421875 11.734375 6.484375 
Q 5.515625 14.40625 5.515625 27.296875 
Q 5.515625 40.1875 11.734375 48.09375 
Q 17.96875 56 27.875 56 
Q 33.9375 56 38.25 53.625 
Q 42.578125 51.265625 45.40625 46.390625 
z
M 14.796875 27.296875 
Q 14.796875 17.390625 18.875 11.75 
Q 22.953125 6.109375 30.078125 6.109375 
Q 37.203125 6.109375 41.296875 11.75 
Q 45.40625 17.390625 45.40625 27.296875 
Q 45.40625 37.203125 41.296875 42.84375 
Q 37.203125 48.484375 30.078125 48.484375 
Q 22.953125 48.484375 18.875 42.84375 
Q 14.796875 37.203125 14.796875 27.296875 
z
" id="DejaVuSans-100"/>
      <path d="M 50.984375 -16.609375 
L 50.984375 -23.578125 
L -0.984375 -23.578125 
L -0.984375 -16.609375 
z
" id="DejaVuSans-95"/>
      <path d="M 48.6875 27.296875 
Q 48.6875 37.203125 44.609375 42.84375 
Q 40.53125 48.484375 33.40625 48.484375 
Q 26.265625 48.484375 22.1875 42.84375 
Q 18.109375 37.203125 18.109375 27.296875 
Q 18.109375 17.390625 22.1875 11.75 
Q 26.265625 6.109375 33.40625 6.109375 
Q 40.53125 6.109375 44.609375 11.75 
Q 48.6875 17.390625 48.6875 27.296875 
z
M 18.109375 46.390625 
Q 20.953125 51.265625 25.265625 53.625 
Q 29.59375 56 35.59375 56 
Q 45.5625 56 51.78125 48.09375 
Q 58.015625 40.1875 58.015625 27.296875 
Q 58.015625 14.40625 51.78125 6.484375 
Q 45.5625 -1.421875 35.59375 -1.421875 
Q 29.59375 -1.421875 25.265625 0.953125 
Q 20.953125 3.328125 18.109375 8.203125 
L 18.109375 0 
L 9.078125 0 
L 9.078125 75.984375 
L 18.109375 75.984375 
z
" id="DejaVuSans-98"/>
      <path d="M 9.078125 75.984375 
L 18.109375 75.984375 
L 18.109375 31.109375 
L 44.921875 54.6875 
L 56.390625 54.6875 
L 27.390625 29.109375 
L 57.625 0 
L 45.90625 0 
L 18.109375 26.703125 
L 18.109375 0 
L 9.078125 0 
z
" id="DejaVuSans-107"/>
      <path d="M 45.40625 27.984375 
Q 45.40625 37.75 41.375 43.109375 
Q 37.359375 48.484375 30.078125 48.484375 
Q 22.859375 48.484375 18.828125 43.109375 
Q 14.796875 37.75 14.796875 27.984375 
Q 14.796875 18.265625 18.828125 12.890625 
Q 22.859375 7.515625 30.078125 7.515625 
Q 37.359375 7.515625 41.375 12.890625 
Q 45.40625 18.265625 45.40625 27.984375 
z
M 54.390625 6.78125 
Q 54.390625 -7.171875 48.1875 -13.984375 
Q 42 -20.796875 29.203125 -20.796875 
Q 24.46875 -20.796875 20.265625 -20.09375 
Q 16.0625 -19.390625 12.109375 -17.921875 
L 12.109375 -9.1875 
Q 16.0625 -11.328125 19.921875 -12.34375 
Q 23.78125 -13.375 27.78125 -13.375 
Q 36.625 -13.375 41.015625 -8.765625 
Q 45.40625 -4.15625 45.40625 5.171875 
L 45.40625 9.625 
Q 42.625 4.78125 38.28125 2.390625 
Q 33.9375 0 27.875 0 
Q 17.828125 0 11.671875 7.65625 
Q 5.515625 15.328125 5.515625 27.984375 
Q 5.515625 40.671875 11.671875 48.328125 
Q 17.828125 56 27.875 56 
Q 33.9375 56 38.28125 53.609375 
Q 42.625 51.21875 45.40625 46.390625 
L 45.40625 54.6875 
L 54.390625 54.6875 
z
" id="DejaVuSans-103"/>
      <path d="M 37.109375 75.984375 
L 37.109375 68.5 
L 28.515625 68.5 
Q 23.6875 68.5 21.796875 66.546875 
Q 19.921875 64.59375 19.921875 59.515625 
L 19.921875 54.6875 
L 34.71875 54.6875 
L 34.71875 47.703125 
L 19.921875 47.703125 
L 19.921875 0 
L 10.890625 0 
L 10.890625 47.703125 
L 2.296875 47.703125 
L 2.296875 54.6875 
L 10.890625 54.6875 
L 10.890625 58.5 
Q 10.890625 67.625 15.140625 71.796875 
Q 19.390625 75.984375 28.609375 75.984375 
z
" id="DejaVuSans-102"/>
      <path d="M 8.6875 72.90625 
L 18.609375 72.90625 
L 18.609375 28.609375 
Q 18.609375 16.890625 22.84375 11.734375 
Q 27.09375 6.59375 36.625 6.59375 
Q 46.09375 6.59375 50.34375 11.734375 
Q 54.59375 16.890625 54.59375 28.609375 
L 54.59375 72.90625 
L 64.5 72.90625 
L 64.5 27.390625 
Q 64.5 13.140625 57.4375 5.859375 
Q 50.390625 -1.421875 36.625 -1.421875 
Q 22.796875 -1.421875 15.734375 5.859375 
Q 8.6875 13.140625 8.6875 27.390625 
z
" id="DejaVuSans-85"/>
      <path d="M 2.984375 54.6875 
L 12.5 54.6875 
L 29.59375 8.796875 
L 46.6875 54.6875 
L 56.203125 54.6875 
L 35.6875 0 
L 23.484375 0 
z
" id="DejaVuSans-118"/>
     </defs>
     <use xlink:href="#DejaVuSans-68"/>
     <use x="77.001953" xlink:href="#DejaVuSans-68"/>
     <use x="154.003906" xlink:href="#DejaVuSans-80"/>
     <use x="214.306641" xlink:href="#DejaVuSans-71"/>
     <use x="291.796875" xlink:href="#DejaVuSans-32"/>
     <use x="323.583984" xlink:href="#DejaVuSans-43"/>
     <use x="407.373047" xlink:href="#DejaVuSans-32"/>
     <use x="439.160156" xlink:href="#DejaVuSans-72"/>
     <use x="514.355469" xlink:href="#DejaVuSans-69"/>
     <use x="577.539062" xlink:href="#DejaVuSans-82"/>
     <use x="643.896484" xlink:href="#DejaVuSans-58"/>
     <use x="677.587891" xlink:href="#DejaVuSans-32"/>
     <use x="709.375" xlink:href="#DejaVuSans-115"/>
     <use x="761.474609" xlink:href="#DejaVuSans-108"/>
     <use x="789.257812" xlink:href="#DejaVuSans-105"/>
     <use x="817.041016" xlink:href="#DejaVuSans-100"/>
     <use x="880.517578" xlink:href="#DejaVuSans-101"/>
     <use x="942.041016" xlink:href="#DejaVuSans-95"/>
     <use x="992.041016" xlink:href="#DejaVuSans-98"/>
     <use x="1055.517578" xlink:href="#DejaVuSans-101"/>
     <use x="1117.041016" xlink:href="#DejaVuSans-97"/>
     <use x="1178.320312" xlink:href="#DejaVuSans-115"/>
     <use x="1230.419922" xlink:href="#DejaVuSans-116"/>
     <use x="1269.628906" xlink:href="#DejaVuSans-32"/>
     <use x="1301.416016" xlink:href="#DejaVuSans-116"/>
     <use x="1340.625" xlink:href="#DejaVuSans-97"/>
     <use x="1401.904297" xlink:href="#DejaVuSans-115"/>
     <use x="1454.003906" xlink:href="#DejaVuSans-107"/>
     <use x="1511.914062" xlink:href="#DejaVuSans-32"/>
     <use x="1543.701172" xlink:href="#DejaVuSans-115"/>
     <use x="1595.800781" xlink:href="#DejaVuSans-117"/>
     <use x="1659.179688" xlink:href="#DejaVuSans-99"/>
     <use x="1714.160156" xlink:href="#DejaVuSans-99"/>
     <use x="1769.140625" xlink:href="#DejaVuSans-101"/>
     <use x="1830.664062" xlink:href="#DejaVuSans-115"/>
     <use x="1882.763672" xlink:href="#DejaVuSans-115"/>
     <use x="1934.863281" xlink:href="#DejaVuSans-32"/>
     <use x="1966.650391" xlink:href="#DejaVuSans-114"/>
     <use x="2007.763672" xlink:href="#DejaVuSans-97"/>
     <use x="2069.042969" xlink:href="#DejaVuSans-116"/>
     <use x="2108.251953" xlink:href="#DejaVuSans-101"/>
     <use x="2169.775391" xlink:href="#DejaVuSans-32"/>
     <use x="2201.5625" xlink:href="#DejaVuSans-105"/>
     <use x="2229.345703" xlink:href="#DejaVuSans-110"/>
     <use x="2292.724609" xlink:href="#DejaVuSans-32"/>
     <use x="2324.511719" xlink:href="#DejaVuSans-116"/>
     <use x="2363.720703" xlink:href="#DejaVuSans-114"/>
     <use x="2404.833984" xlink:href="#DejaVuSans-97"/>
     <use x="2466.113281" xlink:href="#DejaVuSans-105"/>
     <use x="2493.896484" xlink:href="#DejaVuSans-110"/>
     <use x="2557.275391" xlink:href="#DejaVuSans-105"/>
     <use x="2585.058594" xlink:href="#DejaVuSans-110"/>
     <use x="2648.4375" xlink:href="#DejaVuSans-103"/>
     <use x="2711.914062" xlink:href="#DejaVuSans-32"/>
     <use x="2743.701172" xlink:href="#DejaVuSans-102"/>
     <use x="2778.90625" xlink:href="#DejaVuSans-111"/>
     <use x="2840.087891" xlink:href="#DejaVuSans-114"/>
     <use x="2881.201172" xlink:href="#DejaVuSans-32"/>
     <use x="2912.988281" xlink:href="#DejaVuSans-85"/>
     <use x="2986.181641" xlink:href="#DejaVuSans-82"/>
     <use x="3055.664062" xlink:href="#DejaVuSans-53"/>
     <use x="3119.287109" xlink:href="#DejaVuSans-32"/>
     <use x="3151.074219" xlink:href="#DejaVuSans-111"/>
     <use x="3212.255859" xlink:href="#DejaVuSans-118"/>
     <use x="3271.435547" xlink:href="#DejaVuSans-101"/>
     <use x="3332.958984" xlink:href="#DejaVuSans-114"/>
     <use x="3374.072266" xlink:href="#DejaVuSans-32"/>
     <use x="3405.859375" xlink:href="#DejaVuSans-49"/>
     <use x="3469.482422" xlink:href="#DejaVuSans-32"/>
     <use x="3501.269531" xlink:href="#DejaVuSans-115"/>
     <use x="3553.369141" xlink:href="#DejaVuSans-101"/>
     <use x="3614.892578" xlink:href="#DejaVuSans-101"/>
     <use x="3676.416016" xlink:href="#DejaVuSans-100"/>
    </g>
   </g>
   <g id="legend_1">
    <g id="patch_7">
     <path d="M 879.988125 144.771875 
L 1029.1 144.771875 
Q 1031.3 144.771875 1031.3 142.571875 
L 1031.3 111.38 
Q 1031.3 109.18 1029.1 109.18 
L 879.988125 109.18 
Q 877.788125 109.18 877.788125 111.38 
L 877.788125 142.571875 
Q 877.788125 144.771875 879.988125 144.771875 
z
" style="fill:#eaeaf2;opacity:0.8;stroke:#cccccc;stroke-linejoin:miter;"/>
    </g>
    <g id="line2d_16">
     <path d="M 882.188125 118.088281 
L 904.188125 118.088281 
" style="fill:none;stroke:#4c72b0;stroke-linecap:round;stroke-width:1.5;"/>
    </g>
    <g id="line2d_17"/>
    <g id="text_18">
     <!-- mean success rate -->
     <g style="fill:#262626;" transform="translate(912.988125 121.938281)scale(0.11 -0.11)">
      <use xlink:href="#DejaVuSans-109"/>
      <use x="97.412109" xlink:href="#DejaVuSans-101"/>
      <use x="158.935547" xlink:href="#DejaVuSans-97"/>
      <use x="220.214844" xlink:href="#DejaVuSans-110"/>
      <use x="283.59375" xlink:href="#DejaVuSans-32"/>
      <use x="315.380859" xlink:href="#DejaVuSans-115"/>
      <use x="367.480469" xlink:href="#DejaVuSans-117"/>
      <use x="430.859375" xlink:href="#DejaVuSans-99"/>
      <use x="485.839844" xlink:href="#DejaVuSans-99"/>
      <use x="540.820312" xlink:href="#DejaVuSans-101"/>
      <use x="602.34375" xlink:href="#DejaVuSans-115"/>
      <use x="654.443359" xlink:href="#DejaVuSans-115"/>
      <use x="706.542969" xlink:href="#DejaVuSans-32"/>
      <use x="738.330078" xlink:href="#DejaVuSans-114"/>
      <use x="779.443359" xlink:href="#DejaVuSans-97"/>
      <use x="840.722656" xlink:href="#DejaVuSans-116"/>
      <use x="879.931641" xlink:href="#DejaVuSans-101"/>
     </g>
    </g>
    <g id="patch_8">
     <path d="M 882.188125 138.084219 
L 904.188125 138.084219 
L 904.188125 130.384219 
L 882.188125 130.384219 
z
" style="fill:#4c72b0;opacity:0.2;stroke:#ffffff;stroke-linejoin:miter;"/>
    </g>
    <g id="text_19">
     <!-- 1 standard deviation -->
     <g style="fill:#262626;" transform="translate(912.988125 138.084219)scale(0.11 -0.11)">
      <use xlink:href="#DejaVuSans-49"/>
      <use x="63.623047" xlink:href="#DejaVuSans-32"/>
      <use x="95.410156" xlink:href="#DejaVuSans-115"/>
      <use x="147.509766" xlink:href="#DejaVuSans-116"/>
      <use x="186.71875" xlink:href="#DejaVuSans-97"/>
      <use x="247.998047" xlink:href="#DejaVuSans-110"/>
      <use x="311.376953" xlink:href="#DejaVuSans-100"/>
      <use x="374.853516" xlink:href="#DejaVuSans-97"/>
      <use x="436.132812" xlink:href="#DejaVuSans-114"/>
      <use x="475.496094" xlink:href="#DejaVuSans-100"/>
      <use x="538.972656" xlink:href="#DejaVuSans-32"/>
      <use x="570.759766" xlink:href="#DejaVuSans-100"/>
      <use x="634.236328" xlink:href="#DejaVuSans-101"/>
      <use x="695.759766" xlink:href="#DejaVuSans-118"/>
      <use x="754.939453" xlink:href="#DejaVuSans-105"/>
      <use x="782.722656" xlink:href="#DejaVuSans-97"/>
      <use x="844.001953" xlink:href="#DejaVuSans-116"/>
      <use x="883.210938" xlink:href="#DejaVuSans-105"/>
      <use x="910.994141" xlink:href="#DejaVuSans-111"/>
      <use x="972.175781" xlink:href="#DejaVuSans-110"/>
     </g>
    </g>
   </g>
  </g>
 </g>
 <defs>
  <clipPath id="p4ff84207ee">
   <rect height="665.28" width="892.8" x="144" y="103.68"/>
  </clipPath>
 </defs>
</svg>
