<?xml version="1.0" encoding="utf-8" standalone="no"?>
<!DOCTYPE svg PUBLIC "-//W3C//DTD SVG 1.1//EN"
  "http://www.w3.org/Graphics/SVG/1.1/DTD/svg11.dtd">
<!-- Created with matplotlib (https://matplotlib.org/) -->
<svg height="345.6pt" version="1.1" viewBox="0 0 460.8 345.6" width="460.8pt" xmlns="http://www.w3.org/2000/svg" xmlns:xlink="http://www.w3.org/1999/xlink">
 <metadata>
  <rdf:RDF xmlns:cc="http://creativecommons.org/ns#" xmlns:dc="http://purl.org/dc/elements/1.1/" xmlns:rdf="http://www.w3.org/1999/02/22-rdf-syntax-ns#">
   <cc:Work>
    <dc:type rdf:resource="http://purl.org/dc/dcmitype/StillImage"/>
    <dc:date>2022-01-05T00:06:06.375111</dc:date>
    <dc:format>image/svg+xml</dc:format>
    <dc:creator>
     <cc:Agent>
      <dc:title>Matplotlib v3.3.4, https://matplotlib.org/</dc:title>
     </cc:Agent>
    </dc:creator>
   </cc:Work>
  </rdf:RDF>
 </metadata>
 <defs>
  <style type="text/css">*{stroke-linecap:butt;stroke-linejoin:round;}</style>
 </defs>
 <g id="figure_1">
  <g id="patch_1">
   <path d="M 0 345.6 
L 460.8 345.6 
L 460.8 0 
L 0 0 
z
" style="fill:#ffffff;"/>
  </g>
  <g id="axes_1">
   <g id="patch_2">
    <path d="M 33.685 257.92625 
L 217.0575 257.92625 
L 217.0575 74.55375 
L 33.685 74.55375 
z
" style="fill:#ffffff;"/>
   </g>
   <g id="patch_3">
    <path clip-path="url(#pea3d25003d)" d="M 125.37125 242.645208 
C 145.634148 242.645208 165.069858 234.594674 179.397891 220.266641 
C 193.725924 205.938608 201.776458 186.502898 201.776458 166.24 
C 201.776458 145.977102 193.725924 126.541392 179.397891 112.213359 
C 165.069858 97.885326 145.634148 89.834792 125.37125 89.834792 
C 105.108352 89.834792 85.672642 97.885326 71.344609 112.213359 
C 57.016576 126.541392 48.966042 145.977102 48.966042 166.24 
C 48.966042 186.502898 57.016576 205.938608 71.344609 220.266641 
C 85.672642 234.594674 105.108352 242.645208 125.37125 242.645208 
z
" style="fill:none;stroke:#000000;stroke-linejoin:miter;"/>
   </g>
   <g id="patch_4">
    <path clip-path="url(#pea3d25003d)" d="M 219.203015 182.085337 
C 224.876626 182.085337 230.318625 179.831187 234.330474 175.819338 
C 238.342324 171.807489 240.596473 166.36549 240.596473 160.691878 
C 240.596473 155.018267 238.342324 149.576268 234.330474 145.564419 
C 230.318625 141.55257 224.876626 139.29842 219.203015 139.29842 
C 213.529403 139.29842 208.087405 141.55257 204.075555 145.564419 
C 200.063706 149.576268 197.809557 155.018267 197.809557 160.691878 
C 197.809557 166.36549 200.063706 171.807489 204.075555 175.819338 
C 208.087405 179.831187 213.529403 182.085337 219.203015 182.085337 
z
" style="fill:none;stroke:#000000;stroke-dasharray:3.7,1.6;stroke-dashoffset:0;stroke-linejoin:miter;"/>
   </g>
   <g id="matplotlib.axis_1">
    <g id="xtick_1">
     <g id="line2d_1">
      <path clip-path="url(#pea3d25003d)" d="M 38.652362 257.92625 
L 38.652362 74.55375 
" style="fill:none;stroke:#b0b0b0;stroke-linecap:square;stroke-width:0.8;"/>
     </g>
     <g id="line2d_2">
      <defs>
       <path d="M 0 0 
L 0 3.5 
" id="m48ce84c27b" style="stroke:#000000;stroke-width:0.8;"/>
      </defs>
      <g>
       <use style="stroke:#000000;stroke-width:0.8;" x="38.652362" xlink:href="#m48ce84c27b" y="257.92625"/>
      </g>
     </g>
     <g id="text_1">
      <!-- −0.2 -->
      <g transform="translate(26.510956 272.524687)scale(0.1 -0.1)">
       <defs>
        <path d="M 10.59375 35.5 
L 73.1875 35.5 
L 73.1875 27.203125 
L 10.59375 27.203125 
z
" id="DejaVuSans-8722"/>
        <path d="M 31.78125 66.40625 
Q 24.171875 66.40625 20.328125 58.90625 
Q 16.5 51.421875 16.5 36.375 
Q 16.5 21.390625 20.328125 13.890625 
Q 24.171875 6.390625 31.78125 6.390625 
Q 39.453125 6.390625 43.28125 13.890625 
Q 47.125 21.390625 47.125 36.375 
Q 47.125 51.421875 43.28125 58.90625 
Q 39.453125 66.40625 31.78125 66.40625 
z
M 31.78125 74.21875 
Q 44.046875 74.21875 50.515625 64.515625 
Q 56.984375 54.828125 56.984375 36.375 
Q 56.984375 17.96875 50.515625 8.265625 
Q 44.046875 -1.421875 31.78125 -1.421875 
Q 19.53125 -1.421875 13.0625 8.265625 
Q 6.59375 17.96875 6.59375 36.375 
Q 6.59375 54.828125 13.0625 64.515625 
Q 19.53125 74.21875 31.78125 74.21875 
z
" id="DejaVuSans-48"/>
        <path d="M 10.6875 12.40625 
L 21 12.40625 
L 21 0 
L 10.6875 0 
z
" id="DejaVuSans-46"/>
        <path d="M 19.1875 8.296875 
L 53.609375 8.296875 
L 53.609375 0 
L 7.328125 0 
L 7.328125 8.296875 
Q 12.9375 14.109375 22.625 23.890625 
Q 32.328125 33.6875 34.8125 36.53125 
Q 39.546875 41.84375 41.421875 45.53125 
Q 43.3125 49.21875 43.3125 52.78125 
Q 43.3125 58.59375 39.234375 62.25 
Q 35.15625 65.921875 28.609375 65.921875 
Q 23.96875 65.921875 18.8125 64.3125 
Q 13.671875 62.703125 7.8125 59.421875 
L 7.8125 69.390625 
Q 13.765625 71.78125 18.9375 73 
Q 24.125 74.21875 28.421875 74.21875 
Q 39.75 74.21875 46.484375 68.546875 
Q 53.21875 62.890625 53.21875 53.421875 
Q 53.21875 48.921875 51.53125 44.890625 
Q 49.859375 40.875 45.40625 35.40625 
Q 44.1875 33.984375 37.640625 27.21875 
Q 31.109375 20.453125 19.1875 8.296875 
z
" id="DejaVuSans-50"/>
       </defs>
       <use xlink:href="#DejaVuSans-8722"/>
       <use x="83.789062" xlink:href="#DejaVuSans-48"/>
       <use x="147.412109" xlink:href="#DejaVuSans-46"/>
       <use x="179.199219" xlink:href="#DejaVuSans-50"/>
      </g>
     </g>
    </g>
    <g id="xtick_2">
     <g id="line2d_3">
      <path clip-path="url(#pea3d25003d)" d="M 99.776529 257.92625 
L 99.776529 74.55375 
" style="fill:none;stroke:#b0b0b0;stroke-linecap:square;stroke-width:0.8;"/>
     </g>
     <g id="line2d_4">
      <g>
       <use style="stroke:#000000;stroke-width:0.8;" x="99.776529" xlink:href="#m48ce84c27b" y="257.92625"/>
      </g>
     </g>
     <g id="text_2">
      <!-- 0.0 -->
      <g transform="translate(91.824966 272.524687)scale(0.1 -0.1)">
       <use xlink:href="#DejaVuSans-48"/>
       <use x="63.623047" xlink:href="#DejaVuSans-46"/>
       <use x="95.410156" xlink:href="#DejaVuSans-48"/>
      </g>
     </g>
    </g>
    <g id="xtick_3">
     <g id="line2d_5">
      <path clip-path="url(#pea3d25003d)" d="M 160.900695 257.92625 
L 160.900695 74.55375 
" style="fill:none;stroke:#b0b0b0;stroke-linecap:square;stroke-width:0.8;"/>
     </g>
     <g id="line2d_6">
      <g>
       <use style="stroke:#000000;stroke-width:0.8;" x="160.900695" xlink:href="#m48ce84c27b" y="257.92625"/>
      </g>
     </g>
     <g id="text_3">
      <!-- 0.2 -->
      <g transform="translate(152.949133 272.524687)scale(0.1 -0.1)">
       <use xlink:href="#DejaVuSans-48"/>
       <use x="63.623047" xlink:href="#DejaVuSans-46"/>
       <use x="95.410156" xlink:href="#DejaVuSans-50"/>
      </g>
     </g>
    </g>
    <g id="text_4">
     <!-- X-axis [m] -->
     <g transform="translate(100.014219 286.202812)scale(0.1 -0.1)">
      <defs>
       <path d="M 6.296875 72.90625 
L 16.890625 72.90625 
L 35.015625 45.796875 
L 53.21875 72.90625 
L 63.8125 72.90625 
L 40.375 37.890625 
L 65.375 0 
L 54.78125 0 
L 34.28125 31 
L 13.625 0 
L 2.984375 0 
L 29 38.921875 
z
" id="DejaVuSans-88"/>
       <path d="M 4.890625 31.390625 
L 31.203125 31.390625 
L 31.203125 23.390625 
L 4.890625 23.390625 
z
" id="DejaVuSans-45"/>
       <path d="M 34.28125 27.484375 
Q 23.390625 27.484375 19.1875 25 
Q 14.984375 22.515625 14.984375 16.5 
Q 14.984375 11.71875 18.140625 8.90625 
Q 21.296875 6.109375 26.703125 6.109375 
Q 34.1875 6.109375 38.703125 11.40625 
Q 43.21875 16.703125 43.21875 25.484375 
L 43.21875 27.484375 
z
M 52.203125 31.203125 
L 52.203125 0 
L 43.21875 0 
L 43.21875 8.296875 
Q 40.140625 3.328125 35.546875 0.953125 
Q 30.953125 -1.421875 24.3125 -1.421875 
Q 15.921875 -1.421875 10.953125 3.296875 
Q 6 8.015625 6 15.921875 
Q 6 25.140625 12.171875 29.828125 
Q 18.359375 34.515625 30.609375 34.515625 
L 43.21875 34.515625 
L 43.21875 35.40625 
Q 43.21875 41.609375 39.140625 45 
Q 35.0625 48.390625 27.6875 48.390625 
Q 23 48.390625 18.546875 47.265625 
Q 14.109375 46.140625 10.015625 43.890625 
L 10.015625 52.203125 
Q 14.9375 54.109375 19.578125 55.046875 
Q 24.21875 56 28.609375 56 
Q 40.484375 56 46.34375 49.84375 
Q 52.203125 43.703125 52.203125 31.203125 
z
" id="DejaVuSans-97"/>
       <path d="M 54.890625 54.6875 
L 35.109375 28.078125 
L 55.90625 0 
L 45.3125 0 
L 29.390625 21.484375 
L 13.484375 0 
L 2.875 0 
L 24.125 28.609375 
L 4.6875 54.6875 
L 15.28125 54.6875 
L 29.78125 35.203125 
L 44.28125 54.6875 
z
" id="DejaVuSans-120"/>
       <path d="M 9.421875 54.6875 
L 18.40625 54.6875 
L 18.40625 0 
L 9.421875 0 
z
M 9.421875 75.984375 
L 18.40625 75.984375 
L 18.40625 64.59375 
L 9.421875 64.59375 
z
" id="DejaVuSans-105"/>
       <path d="M 44.28125 53.078125 
L 44.28125 44.578125 
Q 40.484375 46.53125 36.375 47.5 
Q 32.28125 48.484375 27.875 48.484375 
Q 21.1875 48.484375 17.84375 46.4375 
Q 14.5 44.390625 14.5 40.28125 
Q 14.5 37.15625 16.890625 35.375 
Q 19.28125 33.59375 26.515625 31.984375 
L 29.59375 31.296875 
Q 39.15625 29.25 43.1875 25.515625 
Q 47.21875 21.78125 47.21875 15.09375 
Q 47.21875 7.46875 41.1875 3.015625 
Q 35.15625 -1.421875 24.609375 -1.421875 
Q 20.21875 -1.421875 15.453125 -0.5625 
Q 10.6875 0.296875 5.421875 2 
L 5.421875 11.28125 
Q 10.40625 8.6875 15.234375 7.390625 
Q 20.0625 6.109375 24.8125 6.109375 
Q 31.15625 6.109375 34.5625 8.28125 
Q 37.984375 10.453125 37.984375 14.40625 
Q 37.984375 18.0625 35.515625 20.015625 
Q 33.0625 21.96875 24.703125 23.78125 
L 21.578125 24.515625 
Q 13.234375 26.265625 9.515625 29.90625 
Q 5.8125 33.546875 5.8125 39.890625 
Q 5.8125 47.609375 11.28125 51.796875 
Q 16.75 56 26.8125 56 
Q 31.78125 56 36.171875 55.265625 
Q 40.578125 54.546875 44.28125 53.078125 
z
" id="DejaVuSans-115"/>
       <path id="DejaVuSans-32"/>
       <path d="M 8.59375 75.984375 
L 29.296875 75.984375 
L 29.296875 69 
L 17.578125 69 
L 17.578125 -6.203125 
L 29.296875 -6.203125 
L 29.296875 -13.1875 
L 8.59375 -13.1875 
z
" id="DejaVuSans-91"/>
       <path d="M 52 44.1875 
Q 55.375 50.25 60.0625 53.125 
Q 64.75 56 71.09375 56 
Q 79.640625 56 84.28125 50.015625 
Q 88.921875 44.046875 88.921875 33.015625 
L 88.921875 0 
L 79.890625 0 
L 79.890625 32.71875 
Q 79.890625 40.578125 77.09375 44.375 
Q 74.3125 48.1875 68.609375 48.1875 
Q 61.625 48.1875 57.5625 43.546875 
Q 53.515625 38.921875 53.515625 30.90625 
L 53.515625 0 
L 44.484375 0 
L 44.484375 32.71875 
Q 44.484375 40.625 41.703125 44.40625 
Q 38.921875 48.1875 33.109375 48.1875 
Q 26.21875 48.1875 22.15625 43.53125 
Q 18.109375 38.875 18.109375 30.90625 
L 18.109375 0 
L 9.078125 0 
L 9.078125 54.6875 
L 18.109375 54.6875 
L 18.109375 46.1875 
Q 21.1875 51.21875 25.484375 53.609375 
Q 29.78125 56 35.6875 56 
Q 41.65625 56 45.828125 52.96875 
Q 50 49.953125 52 44.1875 
z
" id="DejaVuSans-109"/>
       <path d="M 30.421875 75.984375 
L 30.421875 -13.1875 
L 9.71875 -13.1875 
L 9.71875 -6.203125 
L 21.390625 -6.203125 
L 21.390625 69 
L 9.71875 69 
L 9.71875 75.984375 
z
" id="DejaVuSans-93"/>
      </defs>
      <use xlink:href="#DejaVuSans-88"/>
      <use x="63.505859" xlink:href="#DejaVuSans-45"/>
      <use x="99.589844" xlink:href="#DejaVuSans-97"/>
      <use x="160.869141" xlink:href="#DejaVuSans-120"/>
      <use x="220.048828" xlink:href="#DejaVuSans-105"/>
      <use x="247.832031" xlink:href="#DejaVuSans-115"/>
      <use x="299.931641" xlink:href="#DejaVuSans-32"/>
      <use x="331.71875" xlink:href="#DejaVuSans-91"/>
      <use x="370.732422" xlink:href="#DejaVuSans-109"/>
      <use x="468.144531" xlink:href="#DejaVuSans-93"/>
     </g>
    </g>
   </g>
   <g id="matplotlib.axis_2">
    <g id="ytick_1">
     <g id="line2d_7">
      <path clip-path="url(#pea3d25003d)" d="M 33.685 239.146054 
L 217.0575 239.146054 
" style="fill:none;stroke:#b0b0b0;stroke-linecap:square;stroke-width:0.8;"/>
     </g>
     <g id="line2d_8">
      <defs>
       <path d="M 0 0 
L -3.5 0 
" id="me930fcb1e0" style="stroke:#000000;stroke-width:0.8;"/>
      </defs>
      <g>
       <use style="stroke:#000000;stroke-width:0.8;" x="33.685" xlink:href="#me930fcb1e0" y="239.146054"/>
      </g>
     </g>
     <g id="text_5">
      <!-- −0.7 -->
      <g transform="translate(2.402188 242.945272)scale(0.1 -0.1)">
       <defs>
        <path d="M 8.203125 72.90625 
L 55.078125 72.90625 
L 55.078125 68.703125 
L 28.609375 0 
L 18.3125 0 
L 43.21875 64.59375 
L 8.203125 64.59375 
z
" id="DejaVuSans-55"/>
       </defs>
       <use xlink:href="#DejaVuSans-8722"/>
       <use x="83.789062" xlink:href="#DejaVuSans-48"/>
       <use x="147.412109" xlink:href="#DejaVuSans-46"/>
       <use x="179.199219" xlink:href="#DejaVuSans-55"/>
      </g>
     </g>
    </g>
    <g id="ytick_2">
     <g id="line2d_9">
      <path clip-path="url(#pea3d25003d)" d="M 33.685 208.58397 
L 217.0575 208.58397 
" style="fill:none;stroke:#b0b0b0;stroke-linecap:square;stroke-width:0.8;"/>
     </g>
     <g id="line2d_10">
      <g>
       <use style="stroke:#000000;stroke-width:0.8;" x="33.685" xlink:href="#me930fcb1e0" y="208.58397"/>
      </g>
     </g>
     <g id="text_6">
      <!-- −0.6 -->
      <g transform="translate(2.402188 212.383189)scale(0.1 -0.1)">
       <defs>
        <path d="M 33.015625 40.375 
Q 26.375 40.375 22.484375 35.828125 
Q 18.609375 31.296875 18.609375 23.390625 
Q 18.609375 15.53125 22.484375 10.953125 
Q 26.375 6.390625 33.015625 6.390625 
Q 39.65625 6.390625 43.53125 10.953125 
Q 47.40625 15.53125 47.40625 23.390625 
Q 47.40625 31.296875 43.53125 35.828125 
Q 39.65625 40.375 33.015625 40.375 
z
M 52.59375 71.296875 
L 52.59375 62.3125 
Q 48.875 64.0625 45.09375 64.984375 
Q 41.3125 65.921875 37.59375 65.921875 
Q 27.828125 65.921875 22.671875 59.328125 
Q 17.53125 52.734375 16.796875 39.40625 
Q 19.671875 43.65625 24.015625 45.921875 
Q 28.375 48.1875 33.59375 48.1875 
Q 44.578125 48.1875 50.953125 41.515625 
Q 57.328125 34.859375 57.328125 23.390625 
Q 57.328125 12.15625 50.6875 5.359375 
Q 44.046875 -1.421875 33.015625 -1.421875 
Q 20.359375 -1.421875 13.671875 8.265625 
Q 6.984375 17.96875 6.984375 36.375 
Q 6.984375 53.65625 15.1875 63.9375 
Q 23.390625 74.21875 37.203125 74.21875 
Q 40.921875 74.21875 44.703125 73.484375 
Q 48.484375 72.75 52.59375 71.296875 
z
" id="DejaVuSans-54"/>
       </defs>
       <use xlink:href="#DejaVuSans-8722"/>
       <use x="83.789062" xlink:href="#DejaVuSans-48"/>
       <use x="147.412109" xlink:href="#DejaVuSans-46"/>
       <use x="179.199219" xlink:href="#DejaVuSans-54"/>
      </g>
     </g>
    </g>
    <g id="ytick_3">
     <g id="line2d_11">
      <path clip-path="url(#pea3d25003d)" d="M 33.685 178.021887 
L 217.0575 178.021887 
" style="fill:none;stroke:#b0b0b0;stroke-linecap:square;stroke-width:0.8;"/>
     </g>
     <g id="line2d_12">
      <g>
       <use style="stroke:#000000;stroke-width:0.8;" x="33.685" xlink:href="#me930fcb1e0" y="178.021887"/>
      </g>
     </g>
     <g id="text_7">
      <!-- −0.5 -->
      <g transform="translate(2.402188 181.821106)scale(0.1 -0.1)">
       <defs>
        <path d="M 10.796875 72.90625 
L 49.515625 72.90625 
L 49.515625 64.59375 
L 19.828125 64.59375 
L 19.828125 46.734375 
Q 21.96875 47.46875 24.109375 47.828125 
Q 26.265625 48.1875 28.421875 48.1875 
Q 40.625 48.1875 47.75 41.5 
Q 54.890625 34.8125 54.890625 23.390625 
Q 54.890625 11.625 47.5625 5.09375 
Q 40.234375 -1.421875 26.90625 -1.421875 
Q 22.3125 -1.421875 17.546875 -0.640625 
Q 12.796875 0.140625 7.71875 1.703125 
L 7.71875 11.625 
Q 12.109375 9.234375 16.796875 8.0625 
Q 21.484375 6.890625 26.703125 6.890625 
Q 35.15625 6.890625 40.078125 11.328125 
Q 45.015625 15.765625 45.015625 23.390625 
Q 45.015625 31 40.078125 35.4375 
Q 35.15625 39.890625 26.703125 39.890625 
Q 22.75 39.890625 18.8125 39.015625 
Q 14.890625 38.140625 10.796875 36.28125 
z
" id="DejaVuSans-53"/>
       </defs>
       <use xlink:href="#DejaVuSans-8722"/>
       <use x="83.789062" xlink:href="#DejaVuSans-48"/>
       <use x="147.412109" xlink:href="#DejaVuSans-46"/>
       <use x="179.199219" xlink:href="#DejaVuSans-53"/>
      </g>
     </g>
    </g>
    <g id="ytick_4">
     <g id="line2d_13">
      <path clip-path="url(#pea3d25003d)" d="M 33.685 147.459804 
L 217.0575 147.459804 
" style="fill:none;stroke:#b0b0b0;stroke-linecap:square;stroke-width:0.8;"/>
     </g>
     <g id="line2d_14">
      <g>
       <use style="stroke:#000000;stroke-width:0.8;" x="33.685" xlink:href="#me930fcb1e0" y="147.459804"/>
      </g>
     </g>
     <g id="text_8">
      <!-- −0.4 -->
      <g transform="translate(2.402188 151.259022)scale(0.1 -0.1)">
       <defs>
        <path d="M 37.796875 64.3125 
L 12.890625 25.390625 
L 37.796875 25.390625 
z
M 35.203125 72.90625 
L 47.609375 72.90625 
L 47.609375 25.390625 
L 58.015625 25.390625 
L 58.015625 17.1875 
L 47.609375 17.1875 
L 47.609375 0 
L 37.796875 0 
L 37.796875 17.1875 
L 4.890625 17.1875 
L 4.890625 26.703125 
z
" id="DejaVuSans-52"/>
       </defs>
       <use xlink:href="#DejaVuSans-8722"/>
       <use x="83.789062" xlink:href="#DejaVuSans-48"/>
       <use x="147.412109" xlink:href="#DejaVuSans-46"/>
       <use x="179.199219" xlink:href="#DejaVuSans-52"/>
      </g>
     </g>
    </g>
    <g id="ytick_5">
     <g id="line2d_15">
      <path clip-path="url(#pea3d25003d)" d="M 33.685 116.89772 
L 217.0575 116.89772 
" style="fill:none;stroke:#b0b0b0;stroke-linecap:square;stroke-width:0.8;"/>
     </g>
     <g id="line2d_16">
      <g>
       <use style="stroke:#000000;stroke-width:0.8;" x="33.685" xlink:href="#me930fcb1e0" y="116.89772"/>
      </g>
     </g>
     <g id="text_9">
      <!-- −0.3 -->
      <g transform="translate(2.402188 120.696939)scale(0.1 -0.1)">
       <defs>
        <path d="M 40.578125 39.3125 
Q 47.65625 37.796875 51.625 33 
Q 55.609375 28.21875 55.609375 21.1875 
Q 55.609375 10.40625 48.1875 4.484375 
Q 40.765625 -1.421875 27.09375 -1.421875 
Q 22.515625 -1.421875 17.65625 -0.515625 
Q 12.796875 0.390625 7.625 2.203125 
L 7.625 11.71875 
Q 11.71875 9.328125 16.59375 8.109375 
Q 21.484375 6.890625 26.8125 6.890625 
Q 36.078125 6.890625 40.9375 10.546875 
Q 45.796875 14.203125 45.796875 21.1875 
Q 45.796875 27.640625 41.28125 31.265625 
Q 36.765625 34.90625 28.71875 34.90625 
L 20.21875 34.90625 
L 20.21875 43.015625 
L 29.109375 43.015625 
Q 36.375 43.015625 40.234375 45.921875 
Q 44.09375 48.828125 44.09375 54.296875 
Q 44.09375 59.90625 40.109375 62.90625 
Q 36.140625 65.921875 28.71875 65.921875 
Q 24.65625 65.921875 20.015625 65.03125 
Q 15.375 64.15625 9.8125 62.3125 
L 9.8125 71.09375 
Q 15.4375 72.65625 20.34375 73.4375 
Q 25.25 74.21875 29.59375 74.21875 
Q 40.828125 74.21875 47.359375 69.109375 
Q 53.90625 64.015625 53.90625 55.328125 
Q 53.90625 49.265625 50.4375 45.09375 
Q 46.96875 40.921875 40.578125 39.3125 
z
" id="DejaVuSans-51"/>
       </defs>
       <use xlink:href="#DejaVuSans-8722"/>
       <use x="83.789062" xlink:href="#DejaVuSans-48"/>
       <use x="147.412109" xlink:href="#DejaVuSans-46"/>
       <use x="179.199219" xlink:href="#DejaVuSans-51"/>
      </g>
     </g>
    </g>
    <g id="ytick_6">
     <g id="line2d_17">
      <path clip-path="url(#pea3d25003d)" d="M 33.685 86.335637 
L 217.0575 86.335637 
" style="fill:none;stroke:#b0b0b0;stroke-linecap:square;stroke-width:0.8;"/>
     </g>
     <g id="line2d_18">
      <g>
       <use style="stroke:#000000;stroke-width:0.8;" x="33.685" xlink:href="#me930fcb1e0" y="86.335637"/>
      </g>
     </g>
     <g id="text_10">
      <!-- −0.2 -->
      <g transform="translate(2.402188 90.134856)scale(0.1 -0.1)">
       <use xlink:href="#DejaVuSans-8722"/>
       <use x="83.789062" xlink:href="#DejaVuSans-48"/>
       <use x="147.412109" xlink:href="#DejaVuSans-46"/>
       <use x="179.199219" xlink:href="#DejaVuSans-50"/>
      </g>
     </g>
    </g>
    <g id="text_11">
     <!-- Y-axis [m] -->
     <g transform="translate(-3.6775 190.882187)rotate(-90)scale(0.1 -0.1)">
      <defs>
       <path d="M -0.203125 72.90625 
L 10.40625 72.90625 
L 30.609375 42.921875 
L 50.6875 72.90625 
L 61.28125 72.90625 
L 35.5 34.71875 
L 35.5 0 
L 25.59375 0 
L 25.59375 34.71875 
z
" id="DejaVuSans-89"/>
      </defs>
      <use xlink:href="#DejaVuSans-89"/>
      <use x="49.208984" xlink:href="#DejaVuSans-45"/>
      <use x="85.292969" xlink:href="#DejaVuSans-97"/>
      <use x="146.572266" xlink:href="#DejaVuSans-120"/>
      <use x="205.751953" xlink:href="#DejaVuSans-105"/>
      <use x="233.535156" xlink:href="#DejaVuSans-115"/>
      <use x="285.634766" xlink:href="#DejaVuSans-32"/>
      <use x="317.421875" xlink:href="#DejaVuSans-91"/>
      <use x="356.435547" xlink:href="#DejaVuSans-109"/>
      <use x="453.847656" xlink:href="#DejaVuSans-93"/>
     </g>
    </g>
   </g>
   <g id="line2d_19">
    <defs>
     <path d="M 0 3 
C 0.795609 3 1.55874 2.683901 2.12132 2.12132 
C 2.683901 1.55874 3 0.795609 3 0 
C 3 -0.795609 2.683901 -1.55874 2.12132 -2.12132 
C 1.55874 -2.683901 0.795609 -3 0 -3 
C -0.795609 -3 -1.55874 -2.683901 -2.12132 -2.12132 
C -2.683901 -1.55874 -3 -0.795609 -3 0 
C -3 0.795609 -2.683901 1.55874 -2.12132 2.12132 
C -1.55874 2.683901 -0.795609 3 0 3 
z
" id="m2ebbcc8409" style="stroke:#008000;"/>
    </defs>
    <g clip-path="url(#pea3d25003d)">
     <use style="fill:#008000;stroke:#008000;" x="219.203015" xlink:href="#m2ebbcc8409" y="160.691878"/>
    </g>
   </g>
   <g id="line2d_20"/>
   <g id="line2d_21">
    <defs>
     <path d="M 0 3 
C 0.795609 3 1.55874 2.683901 2.12132 2.12132 
C 2.683901 1.55874 3 0.795609 3 0 
C 3 -0.795609 2.683901 -1.55874 2.12132 -2.12132 
C 1.55874 -2.683901 0.795609 -3 0 -3 
C -0.795609 -3 -1.55874 -2.683901 -2.12132 -2.12132 
C -2.683901 -1.55874 -3 -0.795609 -3 0 
C -3 0.795609 -2.683901 1.55874 -2.12132 2.12132 
C -1.55874 2.683901 -0.795609 3 0 3 
z
" id="me0333c0b76" style="stroke:#ff0000;"/>
    </defs>
    <g clip-path="url(#pea3d25003d)">
     <use style="fill:#ff0000;stroke:#ff0000;" x="134.114464" xlink:href="#me0333c0b76" y="150.95826"/>
    </g>
   </g>
   <g id="line2d_22">
    <defs>
     <path d="M 0 3 
C 0.795609 3 1.55874 2.683901 2.12132 2.12132 
C 2.683901 1.55874 3 0.795609 3 0 
C 3 -0.795609 2.683901 -1.55874 2.12132 -2.12132 
C 1.55874 -2.683901 0.795609 -3 0 -3 
C -0.795609 -3 -1.55874 -2.683901 -2.12132 -2.12132 
C -2.683901 -1.55874 -3 -0.795609 -3 0 
C -3 0.795609 -2.683901 1.55874 -2.12132 2.12132 
C -1.55874 2.683901 -0.795609 3 0 3 
z
" id="m147baebb66" style="stroke:#0000ff;"/>
    </defs>
    <g clip-path="url(#pea3d25003d)">
     <use style="fill:#0000ff;stroke:#0000ff;" x="193.295547" xlink:href="#m147baebb66" y="129.016658"/>
    </g>
   </g>
   <g id="line2d_23">
    <g clip-path="url(#pea3d25003d)">
     <use style="fill:#ff0000;stroke:#ff0000;" x="134.114464" xlink:href="#me0333c0b76" y="150.95826"/>
     <use style="fill:#ff0000;stroke:#ff0000;" x="144.028977" xlink:href="#me0333c0b76" y="135.710599"/>
    </g>
   </g>
   <g id="line2d_24">
    <g clip-path="url(#pea3d25003d)">
     <use style="fill:#0000ff;stroke:#0000ff;" x="193.295547" xlink:href="#m147baebb66" y="129.016658"/>
     <use style="fill:#0000ff;stroke:#0000ff;" x="193.427276" xlink:href="#m147baebb66" y="128.763073"/>
    </g>
   </g>
   <g id="line2d_25">
    <g clip-path="url(#pea3d25003d)">
     <use style="fill:#ff0000;stroke:#ff0000;" x="134.114464" xlink:href="#me0333c0b76" y="150.95826"/>
     <use style="fill:#ff0000;stroke:#ff0000;" x="144.028977" xlink:href="#me0333c0b76" y="135.710599"/>
     <use style="fill:#ff0000;stroke:#ff0000;" x="155.742718" xlink:href="#me0333c0b76" y="122.489282"/>
    </g>
   </g>
   <g id="line2d_26">
    <g clip-path="url(#pea3d25003d)">
     <use style="fill:#0000ff;stroke:#0000ff;" x="193.295547" xlink:href="#m147baebb66" y="129.016658"/>
     <use style="fill:#0000ff;stroke:#0000ff;" x="193.427276" xlink:href="#m147baebb66" y="128.763073"/>
     <use style="fill:#0000ff;stroke:#0000ff;" x="193.295547" xlink:href="#m147baebb66" y="129.016658"/>
    </g>
   </g>
   <g id="line2d_27">
    <g clip-path="url(#pea3d25003d)">
     <use style="fill:#ff0000;stroke:#ff0000;" x="134.114464" xlink:href="#me0333c0b76" y="150.95826"/>
     <use style="fill:#ff0000;stroke:#ff0000;" x="144.028977" xlink:href="#me0333c0b76" y="135.710599"/>
     <use style="fill:#ff0000;stroke:#ff0000;" x="155.742718" xlink:href="#me0333c0b76" y="122.489282"/>
     <use style="fill:#ff0000;stroke:#ff0000;" x="167.311254" xlink:href="#me0333c0b76" y="111.086089"/>
    </g>
   </g>
   <g id="line2d_28">
    <g clip-path="url(#pea3d25003d)">
     <use style="fill:#0000ff;stroke:#0000ff;" x="193.295547" xlink:href="#m147baebb66" y="129.016658"/>
     <use style="fill:#0000ff;stroke:#0000ff;" x="193.427276" xlink:href="#m147baebb66" y="128.763073"/>
     <use style="fill:#0000ff;stroke:#0000ff;" x="193.295547" xlink:href="#m147baebb66" y="129.016658"/>
     <use style="fill:#0000ff;stroke:#0000ff;" x="193.427276" xlink:href="#m147baebb66" y="128.763073"/>
    </g>
   </g>
   <g id="line2d_29">
    <g clip-path="url(#pea3d25003d)">
     <use style="fill:#ff0000;stroke:#ff0000;" x="134.114464" xlink:href="#me0333c0b76" y="150.95826"/>
     <use style="fill:#ff0000;stroke:#ff0000;" x="144.028977" xlink:href="#me0333c0b76" y="135.710599"/>
     <use style="fill:#ff0000;stroke:#ff0000;" x="155.742718" xlink:href="#me0333c0b76" y="122.489282"/>
     <use style="fill:#ff0000;stroke:#ff0000;" x="167.311254" xlink:href="#me0333c0b76" y="111.086089"/>
     <use style="fill:#ff0000;stroke:#ff0000;" x="182.156856" xlink:href="#me0333c0b76" y="114.487937"/>
    </g>
   </g>
   <g id="line2d_30">
    <g clip-path="url(#pea3d25003d)">
     <use style="fill:#0000ff;stroke:#0000ff;" x="193.295547" xlink:href="#m147baebb66" y="129.016658"/>
     <use style="fill:#0000ff;stroke:#0000ff;" x="193.427276" xlink:href="#m147baebb66" y="128.763073"/>
     <use style="fill:#0000ff;stroke:#0000ff;" x="193.295547" xlink:href="#m147baebb66" y="129.016658"/>
     <use style="fill:#0000ff;stroke:#0000ff;" x="193.427276" xlink:href="#m147baebb66" y="128.763073"/>
     <use style="fill:#0000ff;stroke:#0000ff;" x="193.295547" xlink:href="#m147baebb66" y="129.016658"/>
    </g>
   </g>
   <g id="line2d_31">
    <g clip-path="url(#pea3d25003d)">
     <use style="fill:#ff0000;stroke:#ff0000;" x="134.114464" xlink:href="#me0333c0b76" y="150.95826"/>
     <use style="fill:#ff0000;stroke:#ff0000;" x="144.028977" xlink:href="#me0333c0b76" y="135.710599"/>
     <use style="fill:#ff0000;stroke:#ff0000;" x="155.742718" xlink:href="#me0333c0b76" y="122.489282"/>
     <use style="fill:#ff0000;stroke:#ff0000;" x="167.311254" xlink:href="#me0333c0b76" y="111.086089"/>
     <use style="fill:#ff0000;stroke:#ff0000;" x="182.156856" xlink:href="#me0333c0b76" y="114.487937"/>
     <use style="fill:#ff0000;stroke:#ff0000;" x="194.637358" xlink:href="#me0333c0b76" y="129.781103"/>
    </g>
   </g>
   <g id="line2d_32">
    <g clip-path="url(#pea3d25003d)">
     <use style="fill:#0000ff;stroke:#0000ff;" x="193.295547" xlink:href="#m147baebb66" y="129.016658"/>
     <use style="fill:#0000ff;stroke:#0000ff;" x="193.427276" xlink:href="#m147baebb66" y="128.763073"/>
     <use style="fill:#0000ff;stroke:#0000ff;" x="193.295547" xlink:href="#m147baebb66" y="129.016658"/>
     <use style="fill:#0000ff;stroke:#0000ff;" x="193.427276" xlink:href="#m147baebb66" y="128.763073"/>
     <use style="fill:#0000ff;stroke:#0000ff;" x="193.295547" xlink:href="#m147baebb66" y="129.016658"/>
     <use style="fill:#0000ff;stroke:#0000ff;" x="196.72051" xlink:href="#m147baebb66" y="130.999209"/>
    </g>
   </g>
   <g id="line2d_33">
    <g clip-path="url(#pea3d25003d)">
     <use style="fill:#ff0000;stroke:#ff0000;" x="134.114464" xlink:href="#me0333c0b76" y="150.95826"/>
     <use style="fill:#ff0000;stroke:#ff0000;" x="144.028977" xlink:href="#me0333c0b76" y="135.710599"/>
     <use style="fill:#ff0000;stroke:#ff0000;" x="155.742718" xlink:href="#me0333c0b76" y="122.489282"/>
     <use style="fill:#ff0000;stroke:#ff0000;" x="167.311254" xlink:href="#me0333c0b76" y="111.086089"/>
     <use style="fill:#ff0000;stroke:#ff0000;" x="182.156856" xlink:href="#me0333c0b76" y="114.487937"/>
     <use style="fill:#ff0000;stroke:#ff0000;" x="194.637358" xlink:href="#me0333c0b76" y="129.781103"/>
     <use style="fill:#ff0000;stroke:#ff0000;" x="206.075436" xlink:href="#me0333c0b76" y="144.512742"/>
    </g>
   </g>
   <g id="line2d_34">
    <g clip-path="url(#pea3d25003d)">
     <use style="fill:#0000ff;stroke:#0000ff;" x="193.295547" xlink:href="#m147baebb66" y="129.016658"/>
     <use style="fill:#0000ff;stroke:#0000ff;" x="193.427276" xlink:href="#m147baebb66" y="128.763073"/>
     <use style="fill:#0000ff;stroke:#0000ff;" x="193.295547" xlink:href="#m147baebb66" y="129.016658"/>
     <use style="fill:#0000ff;stroke:#0000ff;" x="193.427276" xlink:href="#m147baebb66" y="128.763073"/>
     <use style="fill:#0000ff;stroke:#0000ff;" x="193.295547" xlink:href="#m147baebb66" y="129.016658"/>
     <use style="fill:#0000ff;stroke:#0000ff;" x="196.72051" xlink:href="#m147baebb66" y="130.999209"/>
     <use style="fill:#0000ff;stroke:#0000ff;" x="204.748041" xlink:href="#m147baebb66" y="149.789809"/>
    </g>
   </g>
   <g id="patch_5">
    <path d="M 33.685 257.92625 
L 33.685 74.55375 
" style="fill:none;stroke:#000000;stroke-linecap:square;stroke-linejoin:miter;stroke-width:0.8;"/>
   </g>
   <g id="patch_6">
    <path d="M 217.0575 257.92625 
L 217.0575 74.55375 
" style="fill:none;stroke:#000000;stroke-linecap:square;stroke-linejoin:miter;stroke-width:0.8;"/>
   </g>
   <g id="patch_7">
    <path d="M 33.685 257.92625 
L 217.0575 257.92625 
" style="fill:none;stroke:#000000;stroke-linecap:square;stroke-linejoin:miter;stroke-width:0.8;"/>
   </g>
   <g id="patch_8">
    <path d="M 33.685 74.55375 
L 217.0575 74.55375 
" style="fill:none;stroke:#000000;stroke-linecap:square;stroke-linejoin:miter;stroke-width:0.8;"/>
   </g>
   <g id="text_12">
    <!-- PUSH X-Y TCP -->
    <g transform="translate(85.180625 68.55375)scale(0.12 -0.12)">
     <defs>
      <path d="M 19.671875 64.796875 
L 19.671875 37.40625 
L 32.078125 37.40625 
Q 38.96875 37.40625 42.71875 40.96875 
Q 46.484375 44.53125 46.484375 51.125 
Q 46.484375 57.671875 42.71875 61.234375 
Q 38.96875 64.796875 32.078125 64.796875 
z
M 9.8125 72.90625 
L 32.078125 72.90625 
Q 44.34375 72.90625 50.609375 67.359375 
Q 56.890625 61.8125 56.890625 51.125 
Q 56.890625 40.328125 50.609375 34.8125 
Q 44.34375 29.296875 32.078125 29.296875 
L 19.671875 29.296875 
L 19.671875 0 
L 9.8125 0 
z
" id="DejaVuSans-80"/>
      <path d="M 8.6875 72.90625 
L 18.609375 72.90625 
L 18.609375 28.609375 
Q 18.609375 16.890625 22.84375 11.734375 
Q 27.09375 6.59375 36.625 6.59375 
Q 46.09375 6.59375 50.34375 11.734375 
Q 54.59375 16.890625 54.59375 28.609375 
L 54.59375 72.90625 
L 64.5 72.90625 
L 64.5 27.390625 
Q 64.5 13.140625 57.4375 5.859375 
Q 50.390625 -1.421875 36.625 -1.421875 
Q 22.796875 -1.421875 15.734375 5.859375 
Q 8.6875 13.140625 8.6875 27.390625 
z
" id="DejaVuSans-85"/>
      <path d="M 53.515625 70.515625 
L 53.515625 60.890625 
Q 47.90625 63.578125 42.921875 64.890625 
Q 37.9375 66.21875 33.296875 66.21875 
Q 25.25 66.21875 20.875 63.09375 
Q 16.5 59.96875 16.5 54.203125 
Q 16.5 49.359375 19.40625 46.890625 
Q 22.3125 44.4375 30.421875 42.921875 
L 36.375 41.703125 
Q 47.40625 39.59375 52.65625 34.296875 
Q 57.90625 29 57.90625 20.125 
Q 57.90625 9.515625 50.796875 4.046875 
Q 43.703125 -1.421875 29.984375 -1.421875 
Q 24.8125 -1.421875 18.96875 -0.25 
Q 13.140625 0.921875 6.890625 3.21875 
L 6.890625 13.375 
Q 12.890625 10.015625 18.65625 8.296875 
Q 24.421875 6.59375 29.984375 6.59375 
Q 38.421875 6.59375 43.015625 9.90625 
Q 47.609375 13.234375 47.609375 19.390625 
Q 47.609375 24.75 44.3125 27.78125 
Q 41.015625 30.8125 33.5 32.328125 
L 27.484375 33.5 
Q 16.453125 35.6875 11.515625 40.375 
Q 6.59375 45.0625 6.59375 53.421875 
Q 6.59375 63.09375 13.40625 68.65625 
Q 20.21875 74.21875 32.171875 74.21875 
Q 37.3125 74.21875 42.625 73.28125 
Q 47.953125 72.359375 53.515625 70.515625 
z
" id="DejaVuSans-83"/>
      <path d="M 9.8125 72.90625 
L 19.671875 72.90625 
L 19.671875 43.015625 
L 55.515625 43.015625 
L 55.515625 72.90625 
L 65.375 72.90625 
L 65.375 0 
L 55.515625 0 
L 55.515625 34.71875 
L 19.671875 34.71875 
L 19.671875 0 
L 9.8125 0 
z
" id="DejaVuSans-72"/>
      <path d="M -0.296875 72.90625 
L 61.375 72.90625 
L 61.375 64.59375 
L 35.5 64.59375 
L 35.5 0 
L 25.59375 0 
L 25.59375 64.59375 
L -0.296875 64.59375 
z
" id="DejaVuSans-84"/>
      <path d="M 64.40625 67.28125 
L 64.40625 56.890625 
Q 59.421875 61.53125 53.78125 63.8125 
Q 48.140625 66.109375 41.796875 66.109375 
Q 29.296875 66.109375 22.65625 58.46875 
Q 16.015625 50.828125 16.015625 36.375 
Q 16.015625 21.96875 22.65625 14.328125 
Q 29.296875 6.6875 41.796875 6.6875 
Q 48.140625 6.6875 53.78125 8.984375 
Q 59.421875 11.28125 64.40625 15.921875 
L 64.40625 5.609375 
Q 59.234375 2.09375 53.4375 0.328125 
Q 47.65625 -1.421875 41.21875 -1.421875 
Q 24.65625 -1.421875 15.125 8.703125 
Q 5.609375 18.84375 5.609375 36.375 
Q 5.609375 53.953125 15.125 64.078125 
Q 24.65625 74.21875 41.21875 74.21875 
Q 47.75 74.21875 53.53125 72.484375 
Q 59.328125 70.75 64.40625 67.28125 
z
" id="DejaVuSans-67"/>
     </defs>
     <use xlink:href="#DejaVuSans-80"/>
     <use x="60.302734" xlink:href="#DejaVuSans-85"/>
     <use x="133.496094" xlink:href="#DejaVuSans-83"/>
     <use x="196.972656" xlink:href="#DejaVuSans-72"/>
     <use x="272.167969" xlink:href="#DejaVuSans-32"/>
     <use x="303.955078" xlink:href="#DejaVuSans-88"/>
     <use x="367.460938" xlink:href="#DejaVuSans-45"/>
     <use x="391.669922" xlink:href="#DejaVuSans-89"/>
     <use x="452.753906" xlink:href="#DejaVuSans-32"/>
     <use x="484.541016" xlink:href="#DejaVuSans-84"/>
     <use x="539.75" xlink:href="#DejaVuSans-67"/>
     <use x="609.574219" xlink:href="#DejaVuSans-80"/>
    </g>
   </g>
  </g>
  <g id="axes_2">
   <g id="patch_9">
    <path d="M 258.685 257.92625 
L 442.0575 257.92625 
L 442.0575 74.55375 
L 258.685 74.55375 
z
" style="fill:#ffffff;"/>
   </g>
   <g id="patch_10">
    <path clip-path="url(#p0ab6d29b15)" d="M 350.37125 242.645208 
C 370.634148 242.645208 390.069858 234.594674 404.397891 220.266641 
C 418.725924 205.938608 426.776458 186.502898 426.776458 166.24 
C 426.776458 145.977102 418.725924 126.541392 404.397891 112.213359 
C 390.069858 97.885326 370.634148 89.834792 350.37125 89.834792 
C 330.108352 89.834792 310.672642 97.885326 296.344609 112.213359 
C 282.016576 126.541392 273.966042 145.977102 273.966042 166.24 
C 273.966042 186.502898 282.016576 205.938608 296.344609 220.266641 
C 310.672642 234.594674 330.108352 242.645208 350.37125 242.645208 
z
" style="fill:none;stroke:#000000;stroke-linejoin:miter;"/>
   </g>
   <g id="patch_11">
    <path clip-path="url(#p0ab6d29b15)" d="M 444.203015 218.121387 
C 449.876626 218.121387 455.318625 215.867237 459.330474 211.855388 
C 463.342324 207.843539 465.596473 202.40154 465.596473 196.727929 
C 465.596473 191.054317 463.342324 185.612318 459.330474 181.600469 
C 455.318625 177.58862 449.876626 175.33447 444.203015 175.33447 
C 438.529403 175.33447 433.087405 177.58862 429.075555 181.600469 
C 425.063706 185.612318 422.809557 191.054317 422.809557 196.727929 
C 422.809557 202.40154 425.063706 207.843539 429.075555 211.855388 
C 433.087405 215.867237 438.529403 218.121387 444.203015 218.121387 
z
" style="fill:none;stroke:#000000;stroke-dasharray:3.7,1.6;stroke-dashoffset:0;stroke-linejoin:miter;"/>
   </g>
   <g id="matplotlib.axis_3">
    <g id="xtick_4">
     <g id="line2d_35">
      <path clip-path="url(#p0ab6d29b15)" d="M 263.652362 257.92625 
L 263.652362 74.55375 
" style="fill:none;stroke:#b0b0b0;stroke-linecap:square;stroke-width:0.8;"/>
     </g>
     <g id="line2d_36">
      <g>
       <use style="stroke:#000000;stroke-width:0.8;" x="263.652362" xlink:href="#m48ce84c27b" y="257.92625"/>
      </g>
     </g>
     <g id="text_13">
      <!-- −0.2 -->
      <g transform="translate(251.510956 272.524687)scale(0.1 -0.1)">
       <use xlink:href="#DejaVuSans-8722"/>
       <use x="83.789062" xlink:href="#DejaVuSans-48"/>
       <use x="147.412109" xlink:href="#DejaVuSans-46"/>
       <use x="179.199219" xlink:href="#DejaVuSans-50"/>
      </g>
     </g>
    </g>
    <g id="xtick_5">
     <g id="line2d_37">
      <path clip-path="url(#p0ab6d29b15)" d="M 324.776529 257.92625 
L 324.776529 74.55375 
" style="fill:none;stroke:#b0b0b0;stroke-linecap:square;stroke-width:0.8;"/>
     </g>
     <g id="line2d_38">
      <g>
       <use style="stroke:#000000;stroke-width:0.8;" x="324.776529" xlink:href="#m48ce84c27b" y="257.92625"/>
      </g>
     </g>
     <g id="text_14">
      <!-- 0.0 -->
      <g transform="translate(316.824966 272.524687)scale(0.1 -0.1)">
       <use xlink:href="#DejaVuSans-48"/>
       <use x="63.623047" xlink:href="#DejaVuSans-46"/>
       <use x="95.410156" xlink:href="#DejaVuSans-48"/>
      </g>
     </g>
    </g>
    <g id="xtick_6">
     <g id="line2d_39">
      <path clip-path="url(#p0ab6d29b15)" d="M 385.900695 257.92625 
L 385.900695 74.55375 
" style="fill:none;stroke:#b0b0b0;stroke-linecap:square;stroke-width:0.8;"/>
     </g>
     <g id="line2d_40">
      <g>
       <use style="stroke:#000000;stroke-width:0.8;" x="385.900695" xlink:href="#m48ce84c27b" y="257.92625"/>
      </g>
     </g>
     <g id="text_15">
      <!-- 0.2 -->
      <g transform="translate(377.949133 272.524687)scale(0.1 -0.1)">
       <use xlink:href="#DejaVuSans-48"/>
       <use x="63.623047" xlink:href="#DejaVuSans-46"/>
       <use x="95.410156" xlink:href="#DejaVuSans-50"/>
      </g>
     </g>
    </g>
    <g id="text_16">
     <!-- X-axis [m] -->
     <g transform="translate(325.014219 286.202812)scale(0.1 -0.1)">
      <use xlink:href="#DejaVuSans-88"/>
      <use x="63.505859" xlink:href="#DejaVuSans-45"/>
      <use x="99.589844" xlink:href="#DejaVuSans-97"/>
      <use x="160.869141" xlink:href="#DejaVuSans-120"/>
      <use x="220.048828" xlink:href="#DejaVuSans-105"/>
      <use x="247.832031" xlink:href="#DejaVuSans-115"/>
      <use x="299.931641" xlink:href="#DejaVuSans-32"/>
      <use x="331.71875" xlink:href="#DejaVuSans-91"/>
      <use x="370.732422" xlink:href="#DejaVuSans-109"/>
      <use x="468.144531" xlink:href="#DejaVuSans-93"/>
     </g>
    </g>
   </g>
   <g id="matplotlib.axis_4">
    <g id="ytick_7">
     <g id="line2d_41">
      <path clip-path="url(#p0ab6d29b15)" d="M 258.685 234.36026 
L 442.0575 234.36026 
" style="fill:none;stroke:#b0b0b0;stroke-linecap:square;stroke-width:0.8;"/>
     </g>
     <g id="line2d_42">
      <g>
       <use style="stroke:#000000;stroke-width:0.8;" x="258.685" xlink:href="#me930fcb1e0" y="234.36026"/>
      </g>
     </g>
     <g id="text_17">
      <!-- −0.4 -->
      <g transform="translate(227.402187 238.159479)scale(0.1 -0.1)">
       <use xlink:href="#DejaVuSans-8722"/>
       <use x="83.789062" xlink:href="#DejaVuSans-48"/>
       <use x="147.412109" xlink:href="#DejaVuSans-46"/>
       <use x="179.199219" xlink:href="#DejaVuSans-52"/>
      </g>
     </g>
    </g>
    <g id="ytick_8">
     <g id="line2d_43">
      <path clip-path="url(#p0ab6d29b15)" d="M 258.685 203.798177 
L 442.0575 203.798177 
" style="fill:none;stroke:#b0b0b0;stroke-linecap:square;stroke-width:0.8;"/>
     </g>
     <g id="line2d_44">
      <g>
       <use style="stroke:#000000;stroke-width:0.8;" x="258.685" xlink:href="#me930fcb1e0" y="203.798177"/>
      </g>
     </g>
     <g id="text_18">
      <!-- −0.3 -->
      <g transform="translate(227.402187 207.597395)scale(0.1 -0.1)">
       <use xlink:href="#DejaVuSans-8722"/>
       <use x="83.789062" xlink:href="#DejaVuSans-48"/>
       <use x="147.412109" xlink:href="#DejaVuSans-46"/>
       <use x="179.199219" xlink:href="#DejaVuSans-51"/>
      </g>
     </g>
    </g>
    <g id="ytick_9">
     <g id="line2d_45">
      <path clip-path="url(#p0ab6d29b15)" d="M 258.685 173.236093 
L 442.0575 173.236093 
" style="fill:none;stroke:#b0b0b0;stroke-linecap:square;stroke-width:0.8;"/>
     </g>
     <g id="line2d_46">
      <g>
       <use style="stroke:#000000;stroke-width:0.8;" x="258.685" xlink:href="#me930fcb1e0" y="173.236093"/>
      </g>
     </g>
     <g id="text_19">
      <!-- −0.2 -->
      <g transform="translate(227.402187 177.035312)scale(0.1 -0.1)">
       <use xlink:href="#DejaVuSans-8722"/>
       <use x="83.789062" xlink:href="#DejaVuSans-48"/>
       <use x="147.412109" xlink:href="#DejaVuSans-46"/>
       <use x="179.199219" xlink:href="#DejaVuSans-50"/>
      </g>
     </g>
    </g>
    <g id="ytick_10">
     <g id="line2d_47">
      <path clip-path="url(#p0ab6d29b15)" d="M 258.685 142.67401 
L 442.0575 142.67401 
" style="fill:none;stroke:#b0b0b0;stroke-linecap:square;stroke-width:0.8;"/>
     </g>
     <g id="line2d_48">
      <g>
       <use style="stroke:#000000;stroke-width:0.8;" x="258.685" xlink:href="#me930fcb1e0" y="142.67401"/>
      </g>
     </g>
     <g id="text_20">
      <!-- −0.1 -->
      <g transform="translate(227.402187 146.473229)scale(0.1 -0.1)">
       <defs>
        <path d="M 12.40625 8.296875 
L 28.515625 8.296875 
L 28.515625 63.921875 
L 10.984375 60.40625 
L 10.984375 69.390625 
L 28.421875 72.90625 
L 38.28125 72.90625 
L 38.28125 8.296875 
L 54.390625 8.296875 
L 54.390625 0 
L 12.40625 0 
z
" id="DejaVuSans-49"/>
       </defs>
       <use xlink:href="#DejaVuSans-8722"/>
       <use x="83.789062" xlink:href="#DejaVuSans-48"/>
       <use x="147.412109" xlink:href="#DejaVuSans-46"/>
       <use x="179.199219" xlink:href="#DejaVuSans-49"/>
      </g>
     </g>
    </g>
    <g id="ytick_11">
     <g id="line2d_49">
      <path clip-path="url(#p0ab6d29b15)" d="M 258.685 112.111927 
L 442.0575 112.111927 
" style="fill:none;stroke:#b0b0b0;stroke-linecap:square;stroke-width:0.8;"/>
     </g>
     <g id="line2d_50">
      <g>
       <use style="stroke:#000000;stroke-width:0.8;" x="258.685" xlink:href="#me930fcb1e0" y="112.111927"/>
      </g>
     </g>
     <g id="text_21">
      <!-- 0.0 -->
      <g transform="translate(235.781875 115.911145)scale(0.1 -0.1)">
       <use xlink:href="#DejaVuSans-48"/>
       <use x="63.623047" xlink:href="#DejaVuSans-46"/>
       <use x="95.410156" xlink:href="#DejaVuSans-48"/>
      </g>
     </g>
    </g>
    <g id="ytick_12">
     <g id="line2d_51">
      <path clip-path="url(#p0ab6d29b15)" d="M 258.685 81.549843 
L 442.0575 81.549843 
" style="fill:none;stroke:#b0b0b0;stroke-linecap:square;stroke-width:0.8;"/>
     </g>
     <g id="line2d_52">
      <g>
       <use style="stroke:#000000;stroke-width:0.8;" x="258.685" xlink:href="#me930fcb1e0" y="81.549843"/>
      </g>
     </g>
     <g id="text_22">
      <!-- 0.1 -->
      <g transform="translate(235.781875 85.349062)scale(0.1 -0.1)">
       <use xlink:href="#DejaVuSans-48"/>
       <use x="63.623047" xlink:href="#DejaVuSans-46"/>
       <use x="95.410156" xlink:href="#DejaVuSans-49"/>
      </g>
     </g>
    </g>
    <g id="text_23">
     <!-- Z-axis [m] -->
     <g transform="translate(221.3225 191.759531)rotate(-90)scale(0.1 -0.1)">
      <defs>
       <path d="M 5.609375 72.90625 
L 62.890625 72.90625 
L 62.890625 65.375 
L 16.796875 8.296875 
L 64.015625 8.296875 
L 64.015625 0 
L 4.5 0 
L 4.5 7.515625 
L 50.59375 64.59375 
L 5.609375 64.59375 
z
" id="DejaVuSans-90"/>
      </defs>
      <use xlink:href="#DejaVuSans-90"/>
      <use x="66.755859" xlink:href="#DejaVuSans-45"/>
      <use x="102.839844" xlink:href="#DejaVuSans-97"/>
      <use x="164.119141" xlink:href="#DejaVuSans-120"/>
      <use x="223.298828" xlink:href="#DejaVuSans-105"/>
      <use x="251.082031" xlink:href="#DejaVuSans-115"/>
      <use x="303.181641" xlink:href="#DejaVuSans-32"/>
      <use x="334.96875" xlink:href="#DejaVuSans-91"/>
      <use x="373.982422" xlink:href="#DejaVuSans-109"/>
      <use x="471.394531" xlink:href="#DejaVuSans-93"/>
     </g>
    </g>
   </g>
   <g id="line2d_53">
    <g clip-path="url(#p0ab6d29b15)">
     <use style="fill:#008000;stroke:#008000;" x="444.203015" xlink:href="#m2ebbcc8409" y="196.727929"/>
    </g>
   </g>
   <g id="line2d_54">
    <g clip-path="url(#p0ab6d29b15)">
     <use style="fill:#ff0000;stroke:#ff0000;" x="359.114464" xlink:href="#me0333c0b76" y="160.090731"/>
    </g>
   </g>
   <g id="line2d_55">
    <g clip-path="url(#p0ab6d29b15)">
     <use style="fill:#0000ff;stroke:#0000ff;" x="418.295547" xlink:href="#m147baebb66" y="189.896114"/>
    </g>
   </g>
   <g id="line2d_56">
    <g clip-path="url(#p0ab6d29b15)">
     <use style="fill:#ff0000;stroke:#ff0000;" x="359.114464" xlink:href="#me0333c0b76" y="160.090731"/>
     <use style="fill:#ff0000;stroke:#ff0000;" x="369.028977" xlink:href="#me0333c0b76" y="162.140723"/>
    </g>
   </g>
   <g id="line2d_57">
    <g clip-path="url(#p0ab6d29b15)">
     <use style="fill:#0000ff;stroke:#0000ff;" x="418.295547" xlink:href="#m147baebb66" y="189.896114"/>
     <use style="fill:#0000ff;stroke:#0000ff;" x="418.427276" xlink:href="#m147baebb66" y="189.689131"/>
    </g>
   </g>
   <g id="line2d_58">
    <g clip-path="url(#p0ab6d29b15)">
     <use style="fill:#ff0000;stroke:#ff0000;" x="359.114464" xlink:href="#me0333c0b76" y="160.090731"/>
     <use style="fill:#ff0000;stroke:#ff0000;" x="369.028977" xlink:href="#me0333c0b76" y="162.140723"/>
     <use style="fill:#ff0000;stroke:#ff0000;" x="380.742718" xlink:href="#me0333c0b76" y="169.097313"/>
    </g>
   </g>
   <g id="line2d_59">
    <g clip-path="url(#p0ab6d29b15)">
     <use style="fill:#0000ff;stroke:#0000ff;" x="418.295547" xlink:href="#m147baebb66" y="189.896114"/>
     <use style="fill:#0000ff;stroke:#0000ff;" x="418.427276" xlink:href="#m147baebb66" y="189.689131"/>
     <use style="fill:#0000ff;stroke:#0000ff;" x="418.295547" xlink:href="#m147baebb66" y="189.896114"/>
    </g>
   </g>
   <g id="line2d_60">
    <g clip-path="url(#p0ab6d29b15)">
     <use style="fill:#ff0000;stroke:#ff0000;" x="359.114464" xlink:href="#me0333c0b76" y="160.090731"/>
     <use style="fill:#ff0000;stroke:#ff0000;" x="369.028977" xlink:href="#me0333c0b76" y="162.140723"/>
     <use style="fill:#ff0000;stroke:#ff0000;" x="380.742718" xlink:href="#me0333c0b76" y="169.097313"/>
     <use style="fill:#ff0000;stroke:#ff0000;" x="392.311254" xlink:href="#me0333c0b76" y="180.599557"/>
    </g>
   </g>
   <g id="line2d_61">
    <g clip-path="url(#p0ab6d29b15)">
     <use style="fill:#0000ff;stroke:#0000ff;" x="418.295547" xlink:href="#m147baebb66" y="189.896114"/>
     <use style="fill:#0000ff;stroke:#0000ff;" x="418.427276" xlink:href="#m147baebb66" y="189.689131"/>
     <use style="fill:#0000ff;stroke:#0000ff;" x="418.295547" xlink:href="#m147baebb66" y="189.896114"/>
     <use style="fill:#0000ff;stroke:#0000ff;" x="418.427276" xlink:href="#m147baebb66" y="189.689131"/>
    </g>
   </g>
   <g id="line2d_62">
    <g clip-path="url(#p0ab6d29b15)">
     <use style="fill:#ff0000;stroke:#ff0000;" x="359.114464" xlink:href="#me0333c0b76" y="160.090731"/>
     <use style="fill:#ff0000;stroke:#ff0000;" x="369.028977" xlink:href="#me0333c0b76" y="162.140723"/>
     <use style="fill:#ff0000;stroke:#ff0000;" x="380.742718" xlink:href="#me0333c0b76" y="169.097313"/>
     <use style="fill:#ff0000;stroke:#ff0000;" x="392.311254" xlink:href="#me0333c0b76" y="180.599557"/>
     <use style="fill:#ff0000;stroke:#ff0000;" x="407.156856" xlink:href="#me0333c0b76" y="192.789074"/>
    </g>
   </g>
   <g id="line2d_63">
    <g clip-path="url(#p0ab6d29b15)">
     <use style="fill:#0000ff;stroke:#0000ff;" x="418.295547" xlink:href="#m147baebb66" y="189.896114"/>
     <use style="fill:#0000ff;stroke:#0000ff;" x="418.427276" xlink:href="#m147baebb66" y="189.689131"/>
     <use style="fill:#0000ff;stroke:#0000ff;" x="418.295547" xlink:href="#m147baebb66" y="189.896114"/>
     <use style="fill:#0000ff;stroke:#0000ff;" x="418.427276" xlink:href="#m147baebb66" y="189.689131"/>
     <use style="fill:#0000ff;stroke:#0000ff;" x="418.295547" xlink:href="#m147baebb66" y="189.896114"/>
    </g>
   </g>
   <g id="line2d_64">
    <g clip-path="url(#p0ab6d29b15)">
     <use style="fill:#ff0000;stroke:#ff0000;" x="359.114464" xlink:href="#me0333c0b76" y="160.090731"/>
     <use style="fill:#ff0000;stroke:#ff0000;" x="369.028977" xlink:href="#me0333c0b76" y="162.140723"/>
     <use style="fill:#ff0000;stroke:#ff0000;" x="380.742718" xlink:href="#me0333c0b76" y="169.097313"/>
     <use style="fill:#ff0000;stroke:#ff0000;" x="392.311254" xlink:href="#me0333c0b76" y="180.599557"/>
     <use style="fill:#ff0000;stroke:#ff0000;" x="407.156856" xlink:href="#me0333c0b76" y="192.789074"/>
     <use style="fill:#ff0000;stroke:#ff0000;" x="419.637358" xlink:href="#me0333c0b76" y="192.792218"/>
    </g>
   </g>
   <g id="line2d_65">
    <g clip-path="url(#p0ab6d29b15)">
     <use style="fill:#0000ff;stroke:#0000ff;" x="418.295547" xlink:href="#m147baebb66" y="189.896114"/>
     <use style="fill:#0000ff;stroke:#0000ff;" x="418.427276" xlink:href="#m147baebb66" y="189.689131"/>
     <use style="fill:#0000ff;stroke:#0000ff;" x="418.295547" xlink:href="#m147baebb66" y="189.896114"/>
     <use style="fill:#0000ff;stroke:#0000ff;" x="418.427276" xlink:href="#m147baebb66" y="189.689131"/>
     <use style="fill:#0000ff;stroke:#0000ff;" x="418.295547" xlink:href="#m147baebb66" y="189.896114"/>
     <use style="fill:#0000ff;stroke:#0000ff;" x="421.72051" xlink:href="#m147baebb66" y="188.628095"/>
    </g>
   </g>
   <g id="line2d_66">
    <g clip-path="url(#p0ab6d29b15)">
     <use style="fill:#ff0000;stroke:#ff0000;" x="359.114464" xlink:href="#me0333c0b76" y="160.090731"/>
     <use style="fill:#ff0000;stroke:#ff0000;" x="369.028977" xlink:href="#me0333c0b76" y="162.140723"/>
     <use style="fill:#ff0000;stroke:#ff0000;" x="380.742718" xlink:href="#me0333c0b76" y="169.097313"/>
     <use style="fill:#ff0000;stroke:#ff0000;" x="392.311254" xlink:href="#me0333c0b76" y="180.599557"/>
     <use style="fill:#ff0000;stroke:#ff0000;" x="407.156856" xlink:href="#me0333c0b76" y="192.789074"/>
     <use style="fill:#ff0000;stroke:#ff0000;" x="419.637358" xlink:href="#me0333c0b76" y="192.792218"/>
     <use style="fill:#ff0000;stroke:#ff0000;" x="431.075436" xlink:href="#me0333c0b76" y="192.798437"/>
    </g>
   </g>
   <g id="line2d_67">
    <g clip-path="url(#p0ab6d29b15)">
     <use style="fill:#0000ff;stroke:#0000ff;" x="418.295547" xlink:href="#m147baebb66" y="189.896114"/>
     <use style="fill:#0000ff;stroke:#0000ff;" x="418.427276" xlink:href="#m147baebb66" y="189.689131"/>
     <use style="fill:#0000ff;stroke:#0000ff;" x="418.295547" xlink:href="#m147baebb66" y="189.896114"/>
     <use style="fill:#0000ff;stroke:#0000ff;" x="418.427276" xlink:href="#m147baebb66" y="189.689131"/>
     <use style="fill:#0000ff;stroke:#0000ff;" x="418.295547" xlink:href="#m147baebb66" y="189.896114"/>
     <use style="fill:#0000ff;stroke:#0000ff;" x="421.72051" xlink:href="#m147baebb66" y="188.628095"/>
     <use style="fill:#0000ff;stroke:#0000ff;" x="429.748041" xlink:href="#m147baebb66" y="189.776432"/>
    </g>
   </g>
   <g id="patch_12">
    <path d="M 258.685 257.92625 
L 258.685 74.55375 
" style="fill:none;stroke:#000000;stroke-linecap:square;stroke-linejoin:miter;stroke-width:0.8;"/>
   </g>
   <g id="patch_13">
    <path d="M 442.0575 257.92625 
L 442.0575 74.55375 
" style="fill:none;stroke:#000000;stroke-linecap:square;stroke-linejoin:miter;stroke-width:0.8;"/>
   </g>
   <g id="patch_14">
    <path d="M 258.685 257.92625 
L 442.0575 257.92625 
" style="fill:none;stroke:#000000;stroke-linecap:square;stroke-linejoin:miter;stroke-width:0.8;"/>
   </g>
   <g id="patch_15">
    <path d="M 258.685 74.55375 
L 442.0575 74.55375 
" style="fill:none;stroke:#000000;stroke-linecap:square;stroke-linejoin:miter;stroke-width:0.8;"/>
   </g>
   <g id="text_24">
    <!-- PUSH X-Z TCP -->
    <g transform="translate(309.022812 68.55375)scale(0.12 -0.12)">
     <use xlink:href="#DejaVuSans-80"/>
     <use x="60.302734" xlink:href="#DejaVuSans-85"/>
     <use x="133.496094" xlink:href="#DejaVuSans-83"/>
     <use x="196.972656" xlink:href="#DejaVuSans-72"/>
     <use x="272.167969" xlink:href="#DejaVuSans-32"/>
     <use x="303.955078" xlink:href="#DejaVuSans-88"/>
     <use x="367.460938" xlink:href="#DejaVuSans-45"/>
     <use x="403.544922" xlink:href="#DejaVuSans-90"/>
     <use x="472.050781" xlink:href="#DejaVuSans-32"/>
     <use x="503.837891" xlink:href="#DejaVuSans-84"/>
     <use x="559.046875" xlink:href="#DejaVuSans-67"/>
     <use x="628.871094" xlink:href="#DejaVuSans-80"/>
    </g>
   </g>
  </g>
  <g id="text_25">
   <!-- TCP Planar View PUSH - Episode 0 -->
   <g transform="translate(128.819063 16.030125)scale(0.12 -0.12)">
    <defs>
     <path d="M 9.421875 75.984375 
L 18.40625 75.984375 
L 18.40625 0 
L 9.421875 0 
z
" id="DejaVuSans-108"/>
     <path d="M 54.890625 33.015625 
L 54.890625 0 
L 45.90625 0 
L 45.90625 32.71875 
Q 45.90625 40.484375 42.875 44.328125 
Q 39.84375 48.1875 33.796875 48.1875 
Q 26.515625 48.1875 22.3125 43.546875 
Q 18.109375 38.921875 18.109375 30.90625 
L 18.109375 0 
L 9.078125 0 
L 9.078125 54.6875 
L 18.109375 54.6875 
L 18.109375 46.1875 
Q 21.34375 51.125 25.703125 53.5625 
Q 30.078125 56 35.796875 56 
Q 45.21875 56 50.046875 50.171875 
Q 54.890625 44.34375 54.890625 33.015625 
z
" id="DejaVuSans-110"/>
     <path d="M 41.109375 46.296875 
Q 39.59375 47.171875 37.8125 47.578125 
Q 36.03125 48 33.890625 48 
Q 26.265625 48 22.1875 43.046875 
Q 18.109375 38.09375 18.109375 28.8125 
L 18.109375 0 
L 9.078125 0 
L 9.078125 54.6875 
L 18.109375 54.6875 
L 18.109375 46.1875 
Q 20.953125 51.171875 25.484375 53.578125 
Q 30.03125 56 36.53125 56 
Q 37.453125 56 38.578125 55.875 
Q 39.703125 55.765625 41.0625 55.515625 
z
" id="DejaVuSans-114"/>
     <path d="M 28.609375 0 
L 0.78125 72.90625 
L 11.078125 72.90625 
L 34.1875 11.53125 
L 57.328125 72.90625 
L 67.578125 72.90625 
L 39.796875 0 
z
" id="DejaVuSans-86"/>
     <path d="M 56.203125 29.59375 
L 56.203125 25.203125 
L 14.890625 25.203125 
Q 15.484375 15.921875 20.484375 11.0625 
Q 25.484375 6.203125 34.421875 6.203125 
Q 39.59375 6.203125 44.453125 7.46875 
Q 49.3125 8.734375 54.109375 11.28125 
L 54.109375 2.78125 
Q 49.265625 0.734375 44.1875 -0.34375 
Q 39.109375 -1.421875 33.890625 -1.421875 
Q 20.796875 -1.421875 13.15625 6.1875 
Q 5.515625 13.8125 5.515625 26.8125 
Q 5.515625 40.234375 12.765625 48.109375 
Q 20.015625 56 32.328125 56 
Q 43.359375 56 49.78125 48.890625 
Q 56.203125 41.796875 56.203125 29.59375 
z
M 47.21875 32.234375 
Q 47.125 39.59375 43.09375 43.984375 
Q 39.0625 48.390625 32.421875 48.390625 
Q 24.90625 48.390625 20.390625 44.140625 
Q 15.875 39.890625 15.1875 32.171875 
z
" id="DejaVuSans-101"/>
     <path d="M 4.203125 54.6875 
L 13.1875 54.6875 
L 24.421875 12.015625 
L 35.59375 54.6875 
L 46.1875 54.6875 
L 57.421875 12.015625 
L 68.609375 54.6875 
L 77.59375 54.6875 
L 63.28125 0 
L 52.6875 0 
L 40.921875 44.828125 
L 29.109375 0 
L 18.5 0 
z
" id="DejaVuSans-119"/>
     <path d="M 9.8125 72.90625 
L 55.90625 72.90625 
L 55.90625 64.59375 
L 19.671875 64.59375 
L 19.671875 43.015625 
L 54.390625 43.015625 
L 54.390625 34.71875 
L 19.671875 34.71875 
L 19.671875 8.296875 
L 56.78125 8.296875 
L 56.78125 0 
L 9.8125 0 
z
" id="DejaVuSans-69"/>
     <path d="M 18.109375 8.203125 
L 18.109375 -20.796875 
L 9.078125 -20.796875 
L 9.078125 54.6875 
L 18.109375 54.6875 
L 18.109375 46.390625 
Q 20.953125 51.265625 25.265625 53.625 
Q 29.59375 56 35.59375 56 
Q 45.5625 56 51.78125 48.09375 
Q 58.015625 40.1875 58.015625 27.296875 
Q 58.015625 14.40625 51.78125 6.484375 
Q 45.5625 -1.421875 35.59375 -1.421875 
Q 29.59375 -1.421875 25.265625 0.953125 
Q 20.953125 3.328125 18.109375 8.203125 
z
M 48.6875 27.296875 
Q 48.6875 37.203125 44.609375 42.84375 
Q 40.53125 48.484375 33.40625 48.484375 
Q 26.265625 48.484375 22.1875 42.84375 
Q 18.109375 37.203125 18.109375 27.296875 
Q 18.109375 17.390625 22.1875 11.75 
Q 26.265625 6.109375 33.40625 6.109375 
Q 40.53125 6.109375 44.609375 11.75 
Q 48.6875 17.390625 48.6875 27.296875 
z
" id="DejaVuSans-112"/>
     <path d="M 30.609375 48.390625 
Q 23.390625 48.390625 19.1875 42.75 
Q 14.984375 37.109375 14.984375 27.296875 
Q 14.984375 17.484375 19.15625 11.84375 
Q 23.34375 6.203125 30.609375 6.203125 
Q 37.796875 6.203125 41.984375 11.859375 
Q 46.1875 17.53125 46.1875 27.296875 
Q 46.1875 37.015625 41.984375 42.703125 
Q 37.796875 48.390625 30.609375 48.390625 
z
M 30.609375 56 
Q 42.328125 56 49.015625 48.375 
Q 55.71875 40.765625 55.71875 27.296875 
Q 55.71875 13.875 49.015625 6.21875 
Q 42.328125 -1.421875 30.609375 -1.421875 
Q 18.84375 -1.421875 12.171875 6.21875 
Q 5.515625 13.875 5.515625 27.296875 
Q 5.515625 40.765625 12.171875 48.375 
Q 18.84375 56 30.609375 56 
z
" id="DejaVuSans-111"/>
     <path d="M 45.40625 46.390625 
L 45.40625 75.984375 
L 54.390625 75.984375 
L 54.390625 0 
L 45.40625 0 
L 45.40625 8.203125 
Q 42.578125 3.328125 38.25 0.953125 
Q 33.9375 -1.421875 27.875 -1.421875 
Q 17.96875 -1.421875 11.734375 6.484375 
Q 5.515625 14.40625 5.515625 27.296875 
Q 5.515625 40.1875 11.734375 48.09375 
Q 17.96875 56 27.875 56 
Q 33.9375 56 38.25 53.625 
Q 42.578125 51.265625 45.40625 46.390625 
z
M 14.796875 27.296875 
Q 14.796875 17.390625 18.875 11.75 
Q 22.953125 6.109375 30.078125 6.109375 
Q 37.203125 6.109375 41.296875 11.75 
Q 45.40625 17.390625 45.40625 27.296875 
Q 45.40625 37.203125 41.296875 42.84375 
Q 37.203125 48.484375 30.078125 48.484375 
Q 22.953125 48.484375 18.875 42.84375 
Q 14.796875 37.203125 14.796875 27.296875 
z
" id="DejaVuSans-100"/>
    </defs>
    <use xlink:href="#DejaVuSans-84"/>
    <use x="55.208984" xlink:href="#DejaVuSans-67"/>
    <use x="125.033203" xlink:href="#DejaVuSans-80"/>
    <use x="185.335938" xlink:href="#DejaVuSans-32"/>
    <use x="217.123047" xlink:href="#DejaVuSans-80"/>
    <use x="277.425781" xlink:href="#DejaVuSans-108"/>
    <use x="305.208984" xlink:href="#DejaVuSans-97"/>
    <use x="366.488281" xlink:href="#DejaVuSans-110"/>
    <use x="429.867188" xlink:href="#DejaVuSans-97"/>
    <use x="491.146484" xlink:href="#DejaVuSans-114"/>
    <use x="532.259766" xlink:href="#DejaVuSans-32"/>
    <use x="564.046875" xlink:href="#DejaVuSans-86"/>
    <use x="630.205078" xlink:href="#DejaVuSans-105"/>
    <use x="657.988281" xlink:href="#DejaVuSans-101"/>
    <use x="719.511719" xlink:href="#DejaVuSans-119"/>
    <use x="801.298828" xlink:href="#DejaVuSans-32"/>
    <use x="833.085938" xlink:href="#DejaVuSans-80"/>
    <use x="893.388672" xlink:href="#DejaVuSans-85"/>
    <use x="966.582031" xlink:href="#DejaVuSans-83"/>
    <use x="1030.058594" xlink:href="#DejaVuSans-72"/>
    <use x="1105.253906" xlink:href="#DejaVuSans-32"/>
    <use x="1137.041016" xlink:href="#DejaVuSans-45"/>
    <use x="1173.125" xlink:href="#DejaVuSans-32"/>
    <use x="1204.912109" xlink:href="#DejaVuSans-69"/>
    <use x="1268.095703" xlink:href="#DejaVuSans-112"/>
    <use x="1331.572266" xlink:href="#DejaVuSans-105"/>
    <use x="1359.355469" xlink:href="#DejaVuSans-115"/>
    <use x="1411.455078" xlink:href="#DejaVuSans-111"/>
    <use x="1472.636719" xlink:href="#DejaVuSans-100"/>
    <use x="1536.113281" xlink:href="#DejaVuSans-101"/>
    <use x="1597.636719" xlink:href="#DejaVuSans-32"/>
    <use x="1629.423828" xlink:href="#DejaVuSans-48"/>
   </g>
  </g>
 </g>
 <defs>
  <clipPath id="pea3d25003d">
   <rect height="183.3725" width="183.3725" x="33.685" y="74.55375"/>
  </clipPath>
  <clipPath id="p0ab6d29b15">
   <rect height="183.3725" width="183.3725" x="258.685" y="74.55375"/>
  </clipPath>
 </defs>
</svg>
